{"glyphs":{"0":{"ha":724,"x_min":45,"x_max":722,"o":"m 686 694 q 707 684 691 690 q 722 664 722 678 q 715 636 722 644 q 693 631 708 629 q 676 633 679 633 q 245 -16 542 -16 q 100 58 155 -16 q 45 256 45 132 q 134 619 45 439 q 337 881 224 798 q 494 964 450 964 q 505 940 505 964 q 488 905 505 922 q 312 603 382 802 q 243 249 243 404 q 268 130 243 173 q 335 86 292 86 q 488 221 412 86 q 628 644 564 355 q 526 772 526 674 q 558 898 526 830 q 632 965 590 965 q 693 818 693 965 q 686 694 693 754 z "},"1":{"ha":550,"x_min":41,"x_max":497,"o":"m 296 831 q 143 661 188 741 q 119 633 126 633 q 95 641 106 633 q 83 659 83 649 q 119 721 83 670 q 237 850 154 772 q 360 946 320 927 q 464 965 400 965 q 497 948 497 965 q 496 928 497 947 l 496 926 l 438 698 l 364 414 q 287 137 321 252 q 238 10 252 22 q 180 -9 225 -2 q 77 -17 134 -17 q 41 0 41 -17 q 53 43 41 16 q 296 831 163 340 z "},"2":{"ha":725,"x_min":21,"x_max":704,"o":"m 132 136 q 281 160 209 160 q 377 153 294 160 q 476 146 460 146 q 539 160 515 146 q 579 214 564 174 q 589 228 584 228 q 615 221 601 228 q 629 211 629 215 q 593 112 629 189 q 519 10 557 36 q 404 -16 481 -16 q 285 -7 387 -16 q 164 1 183 1 q 66 -7 98 1 q 31 -16 34 -16 q 21 -3 21 -16 q 36 77 21 38 q 105 181 52 117 q 262 343 158 246 l 339 414 q 467 577 430 499 q 504 737 504 656 q 468 848 504 806 q 375 890 433 890 q 279 851 320 890 q 239 757 239 811 q 283 676 239 711 q 307 644 307 659 q 256 600 307 625 q 172 575 204 575 q 127 600 146 575 q 109 660 109 625 q 217 869 109 773 q 457 965 326 965 q 634 900 565 965 q 704 733 704 834 q 658 583 704 652 q 549 461 612 513 q 380 339 485 410 q 221 225 276 268 q 132 136 165 182 z "},"3":{"ha":724,"x_min":21,"x_max":711,"o":"m 711 755 q 469 514 711 587 q 660 279 660 446 q 552 67 660 151 q 278 -17 444 -17 q 87 35 154 -17 q 21 180 21 86 q 38 231 21 214 q 108 265 56 248 q 175 282 160 282 q 191 273 184 282 q 197 252 197 264 q 183 210 197 241 q 170 146 170 178 q 205 67 170 100 q 292 35 241 35 q 419 113 372 35 q 467 290 467 191 q 435 409 467 361 q 354 453 403 456 l 306 450 q 282 478 282 448 q 292 523 282 513 q 323 533 302 533 q 413 542 380 533 q 476 583 447 550 q 522 666 505 616 q 539 765 539 716 q 502 865 539 826 q 407 904 465 904 q 315 872 354 904 q 277 798 277 840 q 287 758 277 781 q 297 722 297 735 q 250 680 297 705 q 182 654 202 654 q 155 673 166 654 q 143 720 143 692 q 234 885 143 806 q 461 965 324 965 q 642 907 572 965 q 711 755 711 848 z "},"4":{"ha":724,"x_min":22,"x_max":697,"o":"m 533 383 q 665 399 613 387 l 676 401 q 697 387 697 401 q 682 329 697 377 q 659 275 667 280 q 616 266 650 269 q 501 262 581 262 l 465 132 q 438 46 450 77 q 410 7 426 16 q 349 -9 395 -2 q 250 -16 303 -16 q 218 1 218 -16 q 228 41 218 16 l 310 264 l 71 272 q 30 276 38 273 q 22 290 22 279 q 37 363 22 334 q 134 526 69 431 q 356 789 229 662 q 539 947 482 917 q 636 966 574 966 q 675 946 675 966 q 643 803 675 937 l 623 715 q 551 449 606 644 l 533 383 m 482 835 q 299 651 416 789 q 97 367 181 513 q 342 370 255 365 q 482 835 399 538 z "},"5":{"ha":724,"x_min":22,"x_max":696,"o":"m 696 965 q 646 842 676 882 q 577 791 616 802 q 473 779 538 779 q 318 790 408 779 l 261 581 q 374 596 321 596 q 576 517 495 596 q 657 321 657 439 q 550 81 657 178 q 285 -16 443 -16 q 93 43 163 -16 q 22 170 22 101 q 28 204 22 191 q 53 228 35 218 q 113 255 72 237 q 168 273 153 273 q 184 257 184 273 q 177 210 184 250 q 170 161 170 169 q 202 72 170 107 q 286 36 235 36 q 411 120 359 36 q 463 325 463 203 q 416 459 463 410 q 288 507 370 507 q 230 502 250 507 q 203 497 210 497 q 191 510 191 497 q 199 545 191 515 l 304 925 q 338 965 315 965 q 361 961 342 965 q 504 946 426 946 q 696 965 594 946 z "},"6":{"ha":724,"x_min":49,"x_max":679,"o":"m 500 576 q 625 511 571 576 q 679 357 679 446 q 564 98 679 212 q 301 -16 448 -16 q 119 71 189 -16 q 49 297 49 157 q 139 629 49 476 q 361 874 229 783 q 557 965 493 965 q 575 955 558 965 q 591 939 591 945 q 575 922 591 932 q 381 724 463 860 q 259 421 300 588 q 218 171 218 254 q 245 72 218 110 q 314 35 272 35 q 438 153 389 35 q 488 372 488 271 q 464 451 488 418 q 411 485 440 485 q 376 478 393 485 q 355 472 359 472 q 346 478 351 472 q 340 492 340 484 q 396 538 340 499 q 500 576 452 576 z "},"7":{"ha":733,"x_min":104,"x_max":708,"o":"m 153 694 q 119 686 135 686 q 104 703 104 686 q 114 743 104 711 l 153 869 q 173 918 162 898 q 199 945 184 938 q 255 959 213 953 q 339 965 298 965 q 460 952 385 965 q 576 940 535 940 q 662 952 635 940 q 693 965 689 965 q 703 960 698 965 q 708 949 708 954 q 610 724 708 914 q 453 379 523 555 q 358 117 382 204 q 321 15 334 30 q 257 -8 308 1 q 150 -17 207 -17 q 118 5 118 -17 q 170 166 118 39 q 422 543 222 294 q 585 785 541 692 q 517 779 546 779 q 400 789 500 779 q 281 799 300 799 q 195 774 222 799 q 153 694 168 750 z "},"8":{"ha":726,"x_min":29,"x_max":705,"o":"m 656 762 l 697 762 q 705 753 705 762 q 697 717 705 743 q 667 711 686 711 q 629 715 642 711 q 465 550 584 632 q 591 298 591 415 q 492 79 591 176 q 264 -17 393 -17 q 95 40 161 -17 q 29 183 29 96 q 82 333 29 262 q 264 485 136 405 q 174 693 174 587 q 243 870 174 795 q 435 966 313 945 q 464 943 464 945 q 441 926 464 935 q 359 860 389 901 q 329 771 329 819 q 353 686 329 726 q 428 590 377 647 q 583 741 535 652 q 532 842 532 777 q 559 928 532 892 q 624 965 587 965 q 667 943 651 965 q 684 882 684 920 q 656 762 684 822 m 436 197 q 403 316 436 258 q 300 446 370 375 q 82 186 82 320 q 133 78 82 121 q 260 35 183 35 q 386 81 336 35 q 436 197 436 127 z "},"9":{"ha":724,"x_min":40,"x_max":671,"o":"m 418 965 q 601 879 531 965 q 671 653 671 793 q 581 320 671 473 q 359 76 491 168 q 163 -16 227 -16 q 144 -5 161 -16 q 127 11 127 5 q 144 28 127 18 q 338 226 256 90 q 460 529 420 362 q 501 779 501 696 q 474 878 501 840 q 406 916 448 916 q 281 797 331 916 q 232 578 232 678 q 256 499 232 532 q 309 465 279 465 q 343 472 326 465 q 364 478 361 478 q 374 472 369 478 q 379 458 379 465 q 323 412 379 451 q 220 374 267 374 q 94 439 149 374 q 40 593 40 505 q 156 851 40 738 q 418 965 271 965 z "}," ":{"ha":347,"x_min":0,"x_max":0,"o":""},"!":{"ha":449,"x_min":32,"x_max":440,"o":"m 211 261 q 171 397 171 325 q 208 551 171 457 q 256 690 245 646 q 267 787 267 735 q 260 859 267 829 q 254 893 254 889 q 324 935 254 905 q 404 964 393 964 q 429 924 417 964 q 440 833 440 884 q 416 695 440 765 q 333 534 391 625 q 254 401 274 444 q 235 319 235 357 q 237 298 235 317 q 240 277 240 280 q 211 261 240 271 m 277 144 q 281 138 281 144 q 260 79 281 131 q 216 6 239 27 q 151 -16 193 -16 q 72 4 112 -16 q 32 31 32 23 q 39 45 32 33 q 93 170 74 92 q 100 186 95 186 q 118 174 108 186 q 214 131 163 131 q 255 138 235 131 q 277 144 274 144 z "},"\"":{"ha":611,"x_min":163,"x_max":548,"o":"m 546 961 q 527 795 548 862 q 435 621 507 728 l 392 614 q 433 809 433 726 q 418 921 433 862 l 546 961 m 317 947 q 298 781 319 848 q 205 607 277 714 l 163 600 q 203 795 203 713 q 189 907 203 848 l 317 947 z "},"#":{"ha":928,"x_min":58,"x_max":869,"o":"m 869 268 l 654 268 l 597 0 l 498 0 l 557 268 l 283 268 l 228 0 l 131 0 l 186 268 l 58 268 l 58 366 l 207 366 l 256 603 l 58 603 l 58 700 l 275 700 l 334 970 l 431 970 l 372 700 l 644 700 l 701 970 l 799 970 l 741 700 l 869 700 l 869 603 l 722 603 l 672 366 l 869 366 l 869 268 m 625 603 l 353 603 l 304 367 l 576 367 l 625 603 z "},"$":{"ha":724,"x_min":31,"x_max":694,"o":"m 529 933 q 651 889 607 916 q 694 833 694 861 q 628 694 694 800 q 596 703 603 694 q 590 725 590 712 q 594 760 590 730 q 597 796 597 790 q 518 893 597 878 l 433 579 q 553 429 514 494 q 591 292 591 364 q 507 94 591 187 q 269 -16 422 0 l 233 -144 l 180 -144 l 216 -11 q 81 54 131 5 q 31 114 31 102 q 60 190 31 126 q 97 263 90 254 q 114 273 104 273 q 138 245 138 273 l 134 182 q 157 86 134 119 q 231 39 180 53 l 332 410 q 218 554 254 491 q 182 685 182 616 q 260 861 182 785 q 476 937 338 937 l 485 971 l 539 971 l 529 933 m 467 899 q 367 856 401 897 q 332 772 332 816 q 393 633 332 704 l 467 899 m 285 36 q 400 91 356 43 q 444 201 444 139 q 372 354 444 271 l 285 36 z "},"%":{"ha":1057,"x_min":46,"x_max":1028,"o":"m 403 829 q 482 822 443 822 q 607 840 540 822 q 766 897 674 857 q 954 968 932 968 q 977 943 977 968 q 972 928 977 935 l 176 -339 l 61 -339 l 812 860 q 482 772 604 772 q 395 779 439 772 q 316 595 372 655 q 186 534 260 534 q 86 578 125 534 q 46 688 46 621 q 79 817 46 743 q 163 931 111 891 q 243 971 214 971 q 261 951 261 971 q 236 901 261 940 q 160 682 160 786 q 175 614 160 640 q 215 589 191 589 q 289 639 245 589 q 349 796 332 690 q 301 880 301 828 q 316 944 301 916 q 350 971 332 971 q 403 829 403 971 m 1026 -52 q 1023 -89 1028 -83 q 999 -96 1017 -96 q 919 -277 977 -214 q 793 -340 861 -340 q 694 -298 733 -340 q 654 -191 654 -255 q 690 -44 654 -119 q 776 64 726 31 q 848 97 825 97 q 868 81 868 97 q 847 37 868 72 q 766 -201 766 -88 q 780 -263 766 -241 q 818 -286 794 -286 q 892 -235 849 -286 q 956 -78 936 -184 q 920 -46 930 -63 q 909 4 909 -29 q 923 71 909 45 q 957 97 937 97 q 1007 -45 1007 97 l 1026 -52 z "},"&":{"ha":940,"x_min":39,"x_max":929,"o":"m 406 547 l 406 604 q 485 856 406 755 q 682 956 564 956 q 794 926 747 956 q 842 859 842 897 q 798 803 842 836 q 743 770 753 770 q 718 809 722 770 q 696 874 713 849 q 650 899 680 899 q 592 851 613 899 q 571 720 571 804 q 614 414 571 585 q 701 171 658 243 q 794 98 743 98 q 880 146 842 98 q 900 160 895 160 q 919 149 909 160 q 929 132 929 138 q 861 48 929 112 q 711 -16 792 -16 q 603 21 650 -16 q 510 135 555 58 q 361 21 426 58 q 222 -16 296 -16 q 90 36 142 -16 q 39 167 39 87 q 406 547 39 376 m 488 184 q 407 493 434 309 q 261 395 308 447 q 215 265 215 342 q 252 144 215 195 q 338 93 289 93 q 398 111 366 93 q 488 184 429 130 z "},"'":{"ha":334,"x_min":163,"x_max":319,"o":"m 317 961 q 298 795 319 862 q 205 621 277 728 l 163 614 q 203 809 203 726 q 189 921 203 862 l 317 961 z "},"(":{"ha":665,"x_min":74,"x_max":644,"o":"m 644 982 q 322 521 411 766 q 233 64 233 277 q 259 -138 233 -48 q 340 -323 284 -228 l 271 -323 q 118 -60 161 -180 q 74 187 74 60 q 193 621 74 416 q 570 982 312 825 l 644 982 z "},")":{"ha":665,"x_min":35,"x_max":608,"o":"m 410 982 q 560 730 512 851 q 608 469 608 608 q 492 44 608 250 q 111 -323 376 -163 l 35 -323 q 210 -135 151 -212 q 327 64 269 -58 q 415 322 384 186 q 446 591 446 458 q 421 800 446 713 q 342 982 397 886 l 410 982 z "},"*":{"ha":665,"x_min":28,"x_max":654,"o":"m 654 501 q 385 633 526 511 q 433 386 387 536 l 296 336 q 289 412 289 376 q 299 505 289 465 q 338 629 310 545 q 122 509 248 602 l 28 621 q 252 676 123 676 q 325 672 277 676 q 138 843 229 787 l 218 966 q 359 699 313 894 q 463 929 437 825 l 604 892 q 399 679 559 772 q 646 646 526 641 l 654 501 z "},"+":{"ha":926,"x_min":90,"x_max":833,"o":"m 833 318 l 515 318 l 515 0 l 408 0 l 408 318 l 90 318 l 90 425 l 408 425 l 408 743 l 515 743 l 515 425 l 833 425 l 833 318 z "},",":{"ha":334,"x_min":31,"x_max":311,"o":"m 201 197 q 285 126 258 163 q 311 37 311 89 q 243 -116 311 -46 q 45 -233 176 -186 l 31 -192 q 144 -117 106 -151 q 183 -36 183 -83 q 115 50 183 23 q 92 66 92 58 q 120 99 92 73 q 201 197 149 125 z "},"-":{"ha":454,"x_min":54,"x_max":430,"o":"m 425 364 l 393 290 q 354 223 369 235 q 296 211 339 211 l 146 216 q 92 199 115 216 q 75 192 81 192 q 61 207 54 192 l 98 294 q 128 338 113 328 q 197 349 144 349 l 309 349 q 387 363 370 349 q 410 376 403 376 q 425 364 430 376 z "},".":{"ha":275,"x_min":21,"x_max":268,"o":"m 268 142 q 213 15 238 45 q 139 -16 189 -16 q 21 28 78 -16 q 89 187 57 83 q 153 141 132 151 q 201 131 173 131 q 268 142 226 131 z "},"/":{"ha":550,"x_min":53,"x_max":513,"o":"m 513 970 l 210 -307 l 53 -307 l 357 970 l 513 970 z "},":":{"ha":390,"x_min":25,"x_max":380,"o":"m 380 534 q 331 413 359 452 q 248 375 304 375 q 127 418 196 375 q 197 579 161 453 q 263 531 241 543 q 313 519 284 519 q 355 527 334 519 q 380 534 377 534 m 273 144 q 225 23 252 62 q 143 -16 198 -16 q 25 28 94 -16 q 93 187 64 85 q 159 141 138 151 q 205 131 181 131 q 273 144 216 131 z "},";":{"ha":449,"x_min":21,"x_max":441,"o":"m 441 534 q 391 413 421 452 q 310 374 361 374 q 259 382 281 374 q 191 421 238 391 q 262 578 235 475 q 316 534 292 548 q 374 521 340 521 q 441 534 391 521 m 193 199 q 301 39 301 133 q 233 -115 301 -45 q 35 -233 165 -186 l 21 -191 q 135 -116 96 -150 q 174 -35 174 -81 q 106 52 174 22 q 83 66 83 60 q 110 100 83 76 q 193 199 136 124 z "},"<":{"ha":926,"x_min":92,"x_max":835,"o":"m 835 11 l 92 322 l 92 419 l 835 730 l 835 615 l 236 371 l 835 126 l 835 11 z "},"=":{"ha":926,"x_min":92,"x_max":835,"o":"m 835 478 l 92 478 l 92 585 l 835 585 l 835 478 m 835 157 l 92 157 l 92 264 l 835 264 l 835 157 z "},">":{"ha":926,"x_min":92,"x_max":833,"o":"m 833 323 l 92 12 l 92 127 l 690 371 l 92 615 l 92 732 l 833 419 l 833 323 z "},"?":{"ha":608,"x_min":41,"x_max":591,"o":"m 204 260 q 172 354 172 314 q 191 416 172 389 q 284 501 209 443 q 388 617 359 559 q 416 736 416 675 q 382 844 416 804 q 292 885 349 885 q 203 850 239 885 q 167 764 167 815 q 179 714 167 738 q 217 690 191 690 q 244 675 244 690 q 195 627 244 657 q 129 596 146 596 q 86 631 106 596 q 66 707 66 666 q 162 885 66 805 q 376 965 258 965 q 531 904 471 965 q 591 747 591 843 q 530 572 591 652 q 328 406 468 493 q 247 345 265 366 q 228 293 228 323 q 231 269 228 289 l 204 260 m 293 146 q 244 23 273 62 q 157 -16 216 -16 q 41 31 104 -16 q 115 189 73 68 q 167 146 143 159 q 229 134 191 134 q 293 146 246 134 z "},"@":{"ha":1156,"x_min":0,"x_max":1156,"o":"m 1156 109 q 927 -187 1077 -85 q 578 -289 778 -289 q 163 -126 327 -289 q 0 285 0 36 q 179 730 0 553 q 632 907 359 907 q 972 785 842 907 q 1101 465 1101 663 q 988 134 1101 269 q 710 0 874 0 q 613 31 648 0 q 578 117 578 62 q 593 207 578 152 q 473 45 525 91 q 367 0 420 0 q 287 40 317 0 q 257 147 257 79 q 312 375 257 262 q 449 558 366 487 q 595 629 532 629 q 689 528 674 629 l 711 606 l 869 611 l 750 200 q 730 100 730 130 q 746 63 730 78 q 785 47 762 47 q 905 103 835 47 q 1020 251 975 158 q 1065 453 1065 344 q 948 750 1065 635 q 646 865 831 865 q 228 687 389 865 q 68 262 68 509 q 212 -108 68 37 q 581 -253 357 -253 q 898 -161 748 -253 q 1116 109 1047 -69 l 1156 109 m 464 119 q 585 248 511 119 q 659 494 659 376 q 645 559 659 536 q 612 582 631 582 q 492 429 557 582 q 427 182 427 275 q 437 137 427 155 q 464 119 448 119 z "},"A":{"ha":940,"x_min":24,"x_max":956,"o":"m 956 150 q 669 -17 800 -17 q 555 34 597 -17 q 509 179 513 85 q 363 31 427 79 q 228 -17 300 -17 q 80 63 136 -17 q 24 275 24 142 q 97 603 24 434 q 314 869 170 771 q 663 966 458 966 q 940 925 816 966 l 940 880 q 771 550 839 762 q 703 227 703 338 q 725 142 703 172 q 786 113 747 113 q 956 228 857 113 l 956 150 m 758 880 q 624 914 696 914 q 420 820 511 914 q 276 569 329 725 q 224 298 224 413 q 253 174 224 222 q 329 126 283 126 q 513 272 409 126 q 758 880 555 654 z "},"B":{"ha":1055,"x_min":21,"x_max":1053,"o":"m 732 529 q 838 586 804 529 q 871 711 871 644 q 809 861 871 805 q 642 917 747 917 q 388 835 500 917 q 275 654 275 753 q 339 568 275 595 q 355 555 355 562 l 355 534 q 301 497 355 519 q 231 475 248 475 q 177 518 204 475 q 150 607 150 561 q 216 776 150 688 q 402 918 282 864 q 679 971 523 971 q 949 901 846 971 q 1053 722 1053 831 q 822 500 1053 559 q 1003 278 1003 444 q 912 71 1003 157 q 696 -16 822 -16 q 603 7 640 -16 q 566 61 566 29 q 589 118 566 82 q 633 154 613 154 q 667 89 661 154 q 699 37 671 37 q 779 138 744 37 q 814 342 814 239 q 725 479 814 466 l 732 529 m 754 791 q 695 711 715 756 q 660 534 675 666 q 621 314 644 403 q 541 148 598 224 q 396 27 484 71 q 207 -17 308 -17 q 69 21 117 -17 q 21 129 21 59 q 25 171 21 154 q 101 222 57 200 q 160 244 145 244 q 184 207 184 244 q 179 164 184 201 q 174 121 174 128 q 245 37 174 37 q 372 132 318 37 q 449 414 425 227 q 514 674 472 602 q 619 784 555 745 q 718 822 683 822 q 754 791 736 822 z "},"C":{"ha":782,"x_min":39,"x_max":798,"o":"m 798 150 q 410 -17 637 -17 q 143 85 247 -17 q 39 347 39 187 q 114 650 39 507 q 311 880 189 794 q 550 966 433 966 q 710 907 648 966 q 772 754 772 848 q 697 542 772 631 q 522 452 623 452 q 435 479 469 452 q 401 549 401 506 q 431 616 401 585 q 490 576 452 576 q 591 644 545 576 q 637 793 637 712 q 611 882 637 849 q 542 916 585 916 q 407 837 479 916 q 288 635 336 758 q 240 400 240 511 q 320 168 240 258 q 525 77 401 77 q 667 113 604 77 q 798 228 730 150 l 798 150 z "},"D":{"ha":1055,"x_min":25,"x_max":1038,"o":"m 385 122 l 471 85 q 540 61 513 67 q 591 54 567 54 q 772 202 704 54 q 840 518 840 349 q 754 805 840 696 q 528 914 667 914 q 318 834 416 914 q 220 664 220 753 q 277 572 220 597 q 301 542 301 561 q 248 499 301 522 q 183 476 195 476 q 122 516 149 476 q 96 606 96 557 q 231 851 96 735 q 583 968 366 968 q 914 853 791 968 q 1038 547 1038 739 q 961 269 1038 401 q 756 60 885 138 q 482 -17 627 -17 q 256 36 361 -17 q 109 -17 171 -17 q 49 3 73 -17 q 25 53 25 24 q 75 133 25 100 q 199 165 124 165 q 300 149 252 165 q 358 233 342 184 q 389 408 374 283 q 438 606 405 534 q 536 726 471 677 q 667 782 601 774 l 693 746 q 630 659 651 703 q 593 470 610 615 q 529 251 576 324 q 385 122 482 178 z "},"E":{"ha":724,"x_min":40,"x_max":739,"o":"m 739 150 q 564 24 652 64 q 364 -16 475 -16 q 129 56 217 -16 q 40 243 40 127 q 113 420 40 344 q 335 526 185 496 q 191 711 191 581 q 290 891 191 815 q 530 966 390 966 q 677 927 631 966 q 722 854 722 887 q 688 791 722 834 q 639 749 654 749 q 612 800 621 749 q 519 916 593 916 q 415 851 462 916 q 368 705 368 787 q 496 575 368 575 q 524 573 517 575 q 532 561 532 570 q 522 504 532 535 q 496 473 511 473 q 462 477 491 473 q 411 481 433 481 q 288 422 339 481 q 236 279 236 363 q 296 130 236 189 q 449 71 357 71 q 601 111 525 71 q 739 228 677 152 l 739 150 z "},"F":{"ha":839,"x_min":28,"x_max":840,"o":"m 840 979 q 789 847 824 888 q 659 806 755 806 l 447 811 q 295 775 353 811 q 237 673 237 739 q 311 578 237 612 q 336 557 336 566 q 309 510 336 538 q 245 468 281 481 q 154 586 154 493 q 205 749 154 651 q 344 909 257 847 q 536 971 431 971 q 633 964 545 971 q 739 957 721 957 q 806 979 794 957 l 840 979 m 811 566 l 799 447 q 754 418 788 432 q 635 382 720 404 q 516 95 618 204 q 258 -14 414 -14 q 89 34 149 -14 q 28 127 28 81 q 75 191 28 149 q 144 233 122 233 q 165 221 161 233 q 170 158 170 208 q 196 73 170 107 q 267 39 221 39 q 441 322 404 39 q 300 264 379 309 l 329 355 q 452 428 387 405 q 489 602 462 537 q 576 728 515 666 q 686 739 657 738 q 654 652 663 694 q 643 498 646 610 q 811 566 732 528 z "},"G":{"ha":882,"x_min":28,"x_max":897,"o":"m 897 150 q 721 29 851 96 q 601 -250 694 -151 q 392 -349 508 -349 q 305 -323 336 -349 q 273 -252 273 -297 q 518 -7 273 -125 q 568 158 544 85 q 444 49 526 96 q 293 1 363 1 q 103 100 179 1 q 28 350 28 199 q 113 652 28 509 q 338 881 199 795 q 607 966 477 966 q 797 900 724 966 q 869 728 869 833 q 787 527 869 614 q 599 440 705 440 q 495 471 536 440 q 454 546 454 501 q 470 594 454 573 q 507 615 486 615 q 528 591 528 615 q 543 559 528 570 q 579 547 559 547 q 683 622 633 547 q 733 781 733 696 q 694 878 733 840 q 595 916 656 916 q 417 834 503 916 q 278 620 332 753 q 224 368 224 488 q 271 194 224 258 q 397 129 319 129 q 652 317 530 129 l 779 335 q 803 323 803 338 q 785 265 803 317 q 734 93 766 214 q 897 228 840 154 l 897 150 m 503 -75 q 326 -249 326 -163 q 370 -294 326 -294 q 503 -75 455 -294 z "},"H":{"ha":1229,"x_min":32,"x_max":1244,"o":"m 1244 150 q 1094 23 1162 64 q 956 -17 1027 -17 q 821 54 876 -17 q 766 260 766 124 q 781 407 766 316 q 656 397 679 399 q 506 78 613 174 q 262 -17 398 -17 q 97 30 162 -17 q 32 119 32 76 q 80 192 32 151 q 147 233 129 233 q 174 176 174 233 q 268 36 174 36 q 383 113 337 36 q 456 370 429 191 q 294 290 374 358 q 285 349 289 298 q 473 458 356 427 q 533 637 497 568 q 715 851 569 707 q 600 823 645 823 q 527 839 571 823 q 457 854 484 854 q 363 813 399 854 q 326 728 326 771 q 372 648 326 684 q 393 624 393 635 q 366 573 393 604 q 315 543 339 543 q 267 581 289 543 q 244 664 244 618 q 342 865 244 764 q 538 966 441 966 q 619 949 559 966 q 701 932 680 932 q 786 970 745 932 q 838 936 838 943 q 797 885 838 926 q 729 768 755 844 q 673 485 703 692 q 810 497 751 488 q 877 674 841 602 q 959 819 913 746 q 1030 908 1006 892 q 1136 945 1055 924 q 1217 966 1216 966 q 1225 962 1225 966 q 1194 910 1225 952 q 1106 757 1164 867 q 1010 522 1049 647 q 1160 587 1083 534 q 1171 575 1168 583 q 1173 536 1173 568 q 985 436 1114 466 q 957 249 957 304 q 986 143 957 182 q 1064 104 1015 104 q 1143 130 1103 104 q 1244 228 1183 155 l 1244 150 z "},"I":{"ha":839,"x_min":33,"x_max":836,"o":"m 720 852 q 599 825 653 825 q 523 841 566 825 q 458 857 480 857 q 369 819 408 857 q 330 729 330 780 q 374 654 330 684 q 396 625 396 637 q 370 575 396 605 q 319 546 343 546 q 270 583 292 546 q 248 665 248 619 q 345 867 248 767 q 542 966 443 966 q 618 950 571 966 q 699 933 665 933 q 768 957 735 933 q 791 966 783 966 q 819 956 802 966 q 836 933 836 945 q 800 886 836 926 q 725 757 746 827 q 682 541 704 687 q 634 301 661 394 q 554 134 608 209 q 425 22 499 59 q 264 -16 351 -16 q 97 32 160 -16 q 33 123 33 80 q 82 191 33 149 q 146 233 131 233 q 170 219 165 233 q 175 170 175 205 q 202 74 175 110 q 272 37 229 37 q 381 105 336 37 q 455 353 427 173 q 532 629 484 532 q 720 852 580 725 z "},"J":{"ha":724,"x_min":22,"x_max":739,"o":"m 739 150 q 492 7 676 79 q 321 -262 428 -176 q 119 -349 214 -349 q 49 -321 76 -349 q 22 -249 22 -294 q 313 1 22 -100 q 389 419 364 307 q 445 596 413 532 q 543 746 477 661 q 627 859 610 831 q 515 823 561 823 q 450 840 488 823 q 380 856 411 856 q 291 818 330 856 q 252 730 252 779 q 286 662 252 688 q 321 624 321 635 q 290 580 321 614 q 241 546 260 546 q 197 579 224 546 q 170 664 170 613 q 267 866 170 766 q 463 966 363 966 q 533 948 495 966 q 597 930 571 930 q 676 966 634 930 q 729 946 729 960 q 698 887 729 937 q 643 762 667 838 q 600 562 618 686 l 590 494 q 514 74 547 188 q 739 228 660 123 l 739 150 m 297 -60 q 75 -243 75 -138 q 89 -278 75 -264 q 122 -292 102 -292 q 217 -237 168 -292 q 297 -60 266 -182 z "},"K":{"ha":1173,"x_min":29,"x_max":1187,"o":"m 711 851 q 585 822 636 822 q 491 843 548 822 q 410 864 435 864 q 333 829 365 864 q 301 745 301 794 q 353 644 301 688 q 370 623 370 630 q 339 580 370 611 q 286 549 308 549 q 239 589 262 549 q 215 671 215 629 q 304 874 215 781 q 498 968 394 968 q 598 945 538 968 q 684 922 657 922 q 755 956 724 922 q 775 966 766 966 q 805 960 784 966 q 825 945 825 953 q 787 890 825 939 q 728 785 749 842 q 689 618 707 729 l 675 534 q 579 185 634 286 q 440 35 524 85 q 261 -16 357 -16 q 99 28 170 -16 q 29 125 29 71 q 75 192 29 151 q 142 232 121 232 q 174 180 174 232 q 265 36 176 36 q 449 355 404 36 q 507 592 469 491 q 711 851 545 694 m 1187 150 q 1044 24 1106 64 q 914 -16 983 -16 q 799 36 844 -16 q 753 167 753 87 q 762 256 753 178 q 771 349 771 334 q 745 440 771 413 q 720 439 736 439 q 688 467 688 439 q 730 507 688 507 l 760 505 q 832 545 802 505 q 889 696 862 585 q 1089 966 956 966 q 1148 943 1120 966 q 1177 893 1177 919 q 1152 828 1177 878 q 1112 779 1126 779 q 1090 804 1105 779 q 1046 829 1075 829 q 957 705 989 829 q 892 536 925 581 q 822 478 860 492 q 921 396 890 443 q 951 272 951 349 q 948 223 951 257 q 945 173 945 189 q 1007 97 945 97 q 1187 228 1078 97 l 1187 150 z "},"L":{"ha":882,"x_min":25,"x_max":897,"o":"m 897 150 q 568 -14 736 -14 q 474 -1 519 -14 q 365 41 429 12 q 250 85 300 71 q 85 -16 159 -16 q 42 1 59 -16 q 25 43 25 18 q 76 133 25 94 q 218 187 126 172 q 268 291 257 240 q 285 457 279 341 q 413 831 296 696 q 665 966 529 966 q 819 907 759 966 q 879 755 879 848 q 816 569 879 649 q 671 489 753 489 q 604 512 628 489 q 579 576 579 536 q 587 625 579 597 q 633 604 606 604 q 714 659 680 604 q 749 790 749 714 q 722 882 749 848 q 650 916 696 916 q 563 876 594 916 q 520 780 532 836 q 494 600 508 724 q 448 380 480 476 q 328 192 416 284 q 428 185 385 196 q 549 144 470 174 q 685 114 628 114 q 897 228 796 114 l 897 150 z "},"M":{"ha":1389,"x_min":26,"x_max":1404,"o":"m 1404 150 q 1128 -14 1253 -14 q 1012 60 1052 -14 q 972 256 972 133 q 1011 517 972 351 q 1112 796 1050 683 l 1152 867 q 1019 683 1071 783 q 896 403 968 583 q 788 158 825 223 q 718 52 751 93 q 658 -1 684 11 q 567 -14 632 -14 q 542 0 542 -14 q 551 43 542 1 q 569 175 559 84 q 582 485 578 267 q 646 860 586 704 q 515 522 582 787 l 498 456 q 338 83 429 180 q 161 -14 248 -14 q 67 20 108 -14 q 26 98 26 54 q 76 174 26 132 q 138 216 125 216 q 157 206 153 216 q 170 150 162 196 q 192 91 177 104 q 231 77 208 77 q 346 181 283 77 q 461 505 409 286 l 481 587 q 528 747 505 688 q 589 867 551 807 q 656 958 644 952 q 703 967 669 964 q 772 971 738 971 q 786 956 786 971 q 782 925 786 948 q 770 734 769 830 l 771 553 q 733 170 772 315 q 838 393 769 213 q 1018 777 937 649 q 1111 896 1057 839 q 1187 956 1166 952 q 1308 970 1259 970 q 1326 960 1326 970 q 1304 896 1326 945 q 1205 573 1251 777 q 1160 249 1160 370 q 1243 113 1160 113 q 1404 228 1311 113 l 1404 150 z "},"N":{"ha":1229,"x_min":46,"x_max":1234,"o":"m 859 187 q 970 610 916 332 q 1059 889 1008 812 q 1178 966 1109 966 q 1234 903 1234 966 q 1220 851 1234 866 q 1162 829 1206 836 q 1084 781 1119 823 q 1021 608 1050 739 l 971 382 q 911 177 945 264 q 856 47 878 90 q 827 1 833 5 q 793 -7 820 -4 l 720 -16 q 691 -5 694 -17 q 685 82 689 6 q 675 196 680 158 q 635 401 669 233 q 590 739 602 568 q 533 547 585 736 q 462 293 481 357 q 408 156 443 229 q 319 34 374 83 q 191 -16 265 -16 q 86 25 125 -16 q 46 102 46 66 q 94 168 46 123 q 161 212 142 212 q 189 164 183 212 q 213 93 194 117 q 257 69 231 69 q 456 454 358 69 l 476 536 q 568 859 534 759 l 590 922 q 605 948 597 943 q 640 957 612 953 l 711 966 q 735 969 727 969 q 755 962 750 969 q 760 933 760 954 q 805 538 760 786 q 859 187 850 290 z "},"O":{"ha":882,"x_min":50,"x_max":864,"o":"m 536 956 q 313 642 382 808 q 243 321 243 475 q 282 164 243 222 q 389 107 321 107 q 668 342 523 107 q 814 778 814 577 q 794 873 814 838 q 743 908 775 908 q 634 819 684 908 q 583 661 583 730 q 629 606 583 612 q 648 587 648 604 q 618 529 648 557 q 554 500 587 500 q 486 537 513 500 q 458 629 458 574 q 547 857 458 747 q 728 966 635 966 q 827 917 791 966 q 864 779 864 867 q 770 420 864 610 q 536 107 677 229 q 272 -16 396 -16 q 113 66 176 -16 q 50 275 50 147 q 105 551 50 412 q 247 801 159 691 q 386 938 334 910 q 536 966 437 966 l 536 956 z "},"P":{"ha":940,"x_min":17,"x_max":942,"o":"m 629 968 q 857 898 772 968 q 942 713 942 829 q 879 541 942 606 q 771 476 817 476 q 733 491 754 476 q 711 518 711 506 q 743 567 711 525 q 818 750 818 659 q 766 872 818 827 q 627 917 715 917 q 386 836 494 917 q 278 659 278 755 q 336 571 278 595 q 359 543 359 561 q 309 500 359 525 q 237 476 258 476 q 180 516 207 476 q 153 604 153 557 q 290 850 153 732 q 629 968 427 968 m 757 791 q 692 698 712 751 q 650 476 671 645 q 582 211 629 308 q 434 49 535 114 q 211 -16 332 -16 q 71 27 125 -16 q 17 136 17 70 q 33 177 17 161 q 96 220 48 193 q 161 248 144 248 q 181 240 173 248 q 189 221 189 232 q 183 171 189 214 q 176 119 176 127 q 244 39 176 39 q 373 129 321 39 q 449 409 425 218 q 519 679 472 600 q 630 790 567 758 q 718 823 694 823 q 757 791 735 823 z "},"Q":{"ha":882,"x_min":29,"x_max":897,"o":"m 897 150 q 757 25 814 65 q 656 -16 701 -16 q 581 12 613 -16 q 504 96 549 40 q 253 -16 366 -16 q 92 65 155 -16 q 29 273 29 146 q 83 547 29 410 q 219 790 136 685 q 354 931 301 896 q 515 966 407 966 l 517 957 q 292 643 362 812 q 222 319 222 474 q 262 162 222 219 q 370 106 301 106 q 473 142 415 106 q 419 205 439 190 q 371 221 399 221 q 358 219 369 221 q 345 216 347 216 q 335 225 335 216 q 375 277 335 243 q 457 311 416 311 q 515 294 489 311 q 576 240 541 276 q 793 778 793 516 q 773 872 793 837 q 722 907 754 907 q 613 818 663 907 q 562 661 562 729 q 608 604 562 610 q 628 587 628 602 q 597 528 628 557 q 533 500 566 500 q 465 536 492 500 q 437 628 437 572 q 526 856 437 745 q 705 966 614 966 q 806 916 770 966 q 843 777 843 865 q 607 197 843 498 q 725 103 671 103 q 897 228 793 103 l 897 150 z "},"R":{"ha":1114,"x_min":28,"x_max":1129,"o":"m 1129 150 q 987 24 1050 64 q 861 -16 925 -16 q 754 28 795 -16 q 714 142 714 71 q 733 258 714 184 q 753 371 753 332 q 711 436 753 434 q 686 460 686 438 q 715 500 686 500 l 761 497 q 862 559 825 497 q 900 710 900 622 q 667 916 900 916 q 403 835 518 916 q 288 656 288 755 q 343 571 288 600 q 370 538 370 557 q 318 497 370 520 q 248 475 267 475 q 194 514 218 475 q 170 603 170 553 q 322 861 170 753 q 694 968 475 968 q 982 888 879 968 q 1084 696 1084 809 q 1028 557 1084 625 q 806 453 971 490 q 893 378 866 418 q 921 277 921 338 q 914 201 921 243 q 907 147 907 159 q 953 89 907 89 q 1129 228 1015 89 l 1129 150 m 781 799 q 706 702 725 753 q 668 512 687 650 q 625 293 649 374 q 541 138 601 211 q 397 25 481 66 q 222 -16 313 -16 q 76 32 125 -16 q 28 140 28 79 q 43 176 28 160 q 106 218 58 191 q 171 245 153 245 q 193 220 193 245 q 186 174 193 214 q 179 126 179 134 q 201 63 179 88 q 256 39 222 39 q 380 128 326 39 q 457 392 435 218 q 515 646 479 567 q 620 773 551 725 q 743 822 688 822 q 781 799 759 822 z "},"S":{"ha":782,"x_min":26,"x_max":724,"o":"m 724 844 q 636 714 724 818 l 624 714 q 607 754 610 720 q 559 868 600 824 q 461 913 518 913 q 369 874 408 913 q 330 781 330 835 q 355 696 330 741 q 482 553 379 651 q 614 398 585 456 q 643 288 643 340 q 538 75 643 167 q 293 -17 433 -17 q 102 37 177 -17 q 26 125 26 91 q 68 213 26 144 q 115 282 109 282 q 146 270 137 282 q 159 223 155 257 q 210 77 169 117 q 317 37 251 37 q 442 87 389 37 q 496 203 496 137 q 475 275 496 237 q 358 405 454 313 q 231 561 261 497 q 201 685 201 625 q 281 878 201 790 q 492 966 360 966 q 657 921 591 966 q 724 844 724 875 z "},"T":{"ha":940,"x_min":24,"x_max":946,"o":"m 946 924 q 822 778 926 778 q 682 810 785 778 q 503 843 578 843 q 335 771 406 843 q 264 646 264 699 q 329 553 264 593 q 355 522 355 536 q 318 473 355 504 q 261 441 280 441 q 201 478 229 441 q 174 558 174 515 q 242 742 174 642 q 421 904 311 841 q 653 966 532 966 q 808 942 735 966 q 900 917 882 917 q 928 926 916 917 l 932 928 l 946 924 m 692 715 q 718 699 718 715 l 702 608 l 699 441 q 673 290 695 359 q 618 172 654 225 q 542 86 587 123 q 451 28 500 52 q 354 -5 405 6 q 260 -16 307 -16 q 86 32 149 -16 q 24 125 24 80 q 70 191 24 151 q 140 232 117 232 q 170 178 170 232 q 198 63 170 90 q 275 37 227 37 q 412 87 353 37 q 491 205 471 136 q 512 408 511 274 q 532 593 513 543 q 603 680 551 644 q 692 715 654 715 z "},"U":{"ha":1055,"x_min":40,"x_max":1071,"o":"m 1071 150 q 806 -16 916 -16 q 698 37 748 -16 q 652 212 648 89 q 382 -16 533 -16 q 264 41 309 -16 q 220 192 220 97 q 302 530 220 294 q 372 799 372 732 q 350 875 372 846 q 293 904 328 904 q 189 841 239 904 q 139 708 139 777 q 184 606 139 647 q 201 581 201 591 q 172 526 201 558 q 118 493 142 493 q 65 533 90 493 q 40 621 40 573 q 134 858 40 750 q 338 966 227 966 q 479 899 425 966 q 533 722 533 831 q 453 370 533 594 q 397 160 397 214 q 413 105 397 125 q 457 85 429 85 q 557 155 509 85 q 632 303 604 226 q 701 529 661 380 l 760 740 q 802 878 784 824 q 826 939 821 932 q 843 949 831 946 q 888 956 854 951 l 985 966 q 1003 957 1006 966 l 971 842 q 876 464 926 682 q 825 186 825 245 q 842 114 825 141 q 888 87 859 87 q 957 115 920 87 q 1071 228 994 143 l 1071 150 z "},"V":{"ha":940,"x_min":45,"x_max":926,"o":"m 860 966 q 904 900 882 966 q 926 762 926 833 q 856 412 926 604 q 676 102 786 220 q 449 -16 567 -16 q 293 52 353 -16 q 233 229 233 120 q 307 528 233 332 q 375 794 375 714 q 355 876 375 847 q 298 905 334 905 q 194 843 243 905 q 144 710 144 781 q 174 624 144 652 q 204 582 204 596 q 175 525 204 557 q 122 493 145 493 q 69 532 94 493 q 45 619 45 571 q 133 855 45 743 q 340 968 222 968 q 486 900 431 968 q 541 717 541 831 q 527 597 541 664 q 461 389 513 531 q 408 174 408 247 q 436 94 408 125 q 507 62 465 62 q 644 140 572 62 q 762 341 715 218 q 808 581 808 465 q 742 817 808 690 q 721 869 721 854 q 780 931 721 895 q 860 966 840 966 z "},"W":{"ha":1331,"x_min":43,"x_max":1320,"o":"m 652 214 q 386 -16 530 -16 q 265 40 311 -16 q 220 186 220 95 q 295 507 220 292 q 371 812 371 723 q 348 879 371 852 q 292 905 326 905 q 188 842 239 905 q 136 711 136 778 q 182 606 136 661 q 201 574 201 583 q 172 528 201 564 q 122 493 143 493 q 71 526 100 493 q 43 623 43 558 q 135 861 43 753 q 338 968 227 968 q 479 899 421 968 q 536 726 536 829 q 467 419 536 618 q 397 154 397 221 q 414 103 397 122 q 457 85 430 85 q 574 181 516 85 q 681 457 633 277 l 745 696 q 828 942 782 837 q 891 960 833 954 q 977 966 950 966 q 1003 956 1003 966 l 879 482 q 825 178 825 274 q 843 111 825 136 q 890 86 861 86 q 1011 158 935 86 q 1139 343 1087 231 q 1192 572 1192 455 q 1131 822 1192 698 q 1114 867 1114 858 q 1170 931 1114 896 q 1250 966 1225 966 q 1296 905 1273 966 q 1320 777 1320 844 q 1236 411 1320 598 q 1029 104 1153 224 q 804 -16 905 -16 q 691 42 733 -16 q 652 214 650 99 z "},"X":{"ha":999,"x_min":33,"x_max":1014,"o":"m 1014 150 q 850 30 942 75 q 684 -16 758 -16 q 529 55 596 -16 q 454 269 462 125 q 161 -16 319 -16 q 70 23 106 -16 q 33 83 33 62 q 87 149 33 99 q 157 199 140 199 q 178 168 172 199 q 203 118 184 137 q 250 98 223 98 q 370 219 307 98 q 479 519 433 339 q 526 774 526 699 q 501 870 526 834 q 432 905 475 905 q 308 837 368 905 q 248 696 248 768 q 339 607 248 607 q 364 593 364 607 q 331 534 364 581 q 257 488 297 488 q 180 529 213 488 q 147 627 147 570 q 251 854 147 743 q 479 966 354 966 q 630 905 572 966 q 686 711 687 844 q 807 904 749 842 q 914 966 866 966 q 973 944 946 966 q 1000 896 1000 922 q 970 829 1000 868 q 922 790 939 790 q 893 819 909 790 q 854 848 877 848 q 761 746 812 848 q 669 491 709 644 q 629 261 629 338 q 670 134 629 182 q 777 86 710 86 q 1014 228 895 86 l 1014 150 z "},"Y":{"ha":1055,"x_min":25,"x_max":1071,"o":"m 1071 150 q 822 9 1003 66 q 664 -262 758 -175 q 469 -350 570 -350 q 387 -322 418 -350 q 355 -248 355 -294 q 643 -1 355 -102 l 659 62 q 742 389 726 336 l 781 518 q 749 450 773 504 q 540 90 631 186 q 359 -7 448 -7 q 249 46 292 -7 q 207 184 207 99 q 283 511 207 292 q 359 804 359 731 q 336 879 359 849 q 277 908 313 908 q 172 846 221 908 q 123 714 123 785 q 170 610 123 650 q 186 586 186 595 q 159 530 186 566 q 106 494 132 494 q 51 534 77 494 q 25 619 25 574 q 113 855 25 739 q 323 971 201 971 q 466 903 410 971 q 521 726 521 835 q 437 366 521 596 q 380 140 380 206 q 425 79 380 79 q 637 328 508 79 q 869 926 766 576 q 886 949 874 944 q 967 963 898 955 q 1042 971 1037 971 q 1057 961 1059 971 l 1021 814 l 916 354 q 843 74 894 259 q 1071 228 983 118 l 1071 150 m 627 -61 q 466 -146 525 -96 q 407 -241 407 -197 q 425 -283 407 -267 q 468 -300 442 -300 q 556 -241 519 -300 q 627 -61 593 -183 z "},"Z":{"ha":782,"x_min":26,"x_max":798,"o":"m 798 150 q 631 24 708 64 q 465 -16 554 -16 q 320 21 408 -16 q 176 57 233 57 q 123 46 140 57 q 97 7 106 35 q 75 -16 90 -16 q 35 -13 43 -16 q 26 1 26 -10 q 62 88 26 15 q 178 266 97 161 q 440 562 260 371 l 486 611 q 654 810 616 749 q 549 786 608 786 q 415 805 498 786 q 297 823 333 823 q 210 798 244 823 q 176 733 176 772 q 210 669 176 697 q 244 624 244 640 q 211 575 244 604 q 164 546 178 546 q 119 580 142 546 q 97 652 97 614 q 197 866 97 765 q 410 968 298 968 q 530 949 439 968 q 656 930 621 930 q 725 948 703 930 q 755 966 747 966 q 781 956 781 966 q 749 863 781 922 q 673 747 718 804 q 460 507 628 690 q 249 273 292 324 q 174 164 206 222 q 261 187 237 182 q 325 192 285 192 q 491 158 394 192 q 635 123 589 123 q 714 149 677 123 q 798 228 751 175 l 798 150 z "},"[":{"ha":665,"x_min":25,"x_max":676,"o":"m 676 968 l 659 905 l 510 905 l 210 -249 l 358 -249 l 340 -311 l 25 -311 l 358 968 l 676 968 z "},"\\":{"ha":551,"x_min":53,"x_max":513,"o":"m 513 -307 l 357 -307 l 53 970 l 210 970 l 513 -307 z "},"]":{"ha":665,"x_min":8,"x_max":664,"o":"m 664 968 l 323 -311 l 8 -311 l 22 -249 l 174 -249 l 478 905 l 329 905 l 346 968 l 664 968 z "},"^":{"ha":791,"x_min":142,"x_max":750,"o":"m 750 452 l 642 452 l 441 799 l 244 452 l 142 452 l 419 939 l 475 939 l 750 452 z "},"_":{"ha":694,"x_min":-14,"x_max":705,"o":"m 705 -174 l -14 -174 l -14 -104 l 705 -104 l 705 -174 z "},"`":{"ha":463,"x_min":21,"x_max":281,"o":"m 281 661 l 249 643 q 21 880 92 736 l 178 907 q 281 661 195 790 z "},"a":{"ha":724,"x_min":7,"x_max":739,"o":"m 739 150 q 584 16 631 47 q 494 -16 537 -16 q 393 174 387 -16 q 268 31 326 77 q 150 -16 211 -16 q 48 40 90 -16 q 7 178 7 96 q 63 372 7 279 q 206 521 119 464 q 361 578 294 578 q 479 500 446 578 l 618 576 l 656 576 l 596 378 q 550 172 550 228 q 591 114 550 114 q 650 142 618 114 q 739 228 682 170 l 739 150 m 243 113 q 371 228 311 113 q 431 441 431 344 q 414 501 431 479 q 368 522 397 522 q 240 407 300 522 q 179 195 179 292 q 197 135 179 158 q 243 113 215 113 z "},"b":{"ha":608,"x_min":8,"x_max":624,"o":"m 624 150 q 510 100 577 100 q 397 150 457 100 q 269 26 325 66 q 147 -14 213 -14 q 48 35 88 -14 q 8 157 8 84 q 91 539 8 298 q 253 903 174 779 q 411 949 342 931 q 489 966 479 966 q 523 940 509 966 q 538 878 538 914 q 475 700 538 802 q 311 497 412 597 l 222 408 q 180 191 180 260 q 198 129 180 152 q 244 106 216 106 q 304 127 277 106 q 364 192 331 148 q 330 311 330 250 q 384 493 330 410 q 497 576 437 576 q 536 555 521 576 q 551 500 551 534 q 427 196 551 389 q 511 150 464 150 q 563 164 541 150 q 624 228 585 178 l 624 150 m 256 513 q 422 712 366 621 q 479 850 479 803 q 471 881 479 869 q 450 893 463 893 q 256 513 371 893 z "},"c":{"ha":507,"x_min":9,"x_max":522,"o":"m 522 150 q 363 24 435 64 q 212 -16 291 -16 q 67 42 124 -16 q 9 187 9 99 q 115 454 9 332 q 343 576 220 576 q 441 543 404 576 q 479 456 479 509 q 472 427 479 437 q 446 408 465 418 l 367 371 q 346 364 353 364 q 336 378 336 364 q 340 413 336 383 q 345 450 345 444 q 332 498 345 480 q 298 517 319 517 q 208 444 249 517 q 167 277 167 370 q 205 148 167 196 q 309 100 244 100 q 412 131 363 100 q 522 228 460 163 l 522 150 z "},"d":{"ha":724,"x_min":9,"x_max":739,"o":"m 739 150 q 590 19 642 53 q 500 -16 539 -16 q 424 31 452 -16 q 395 168 395 78 q 274 31 339 78 q 155 -16 208 -16 q 54 39 98 -16 q 9 167 9 94 q 120 447 9 318 q 357 576 230 576 q 412 566 392 576 q 456 532 432 556 l 553 937 q 713 965 671 965 q 726 954 726 965 q 692 814 726 947 q 557 172 557 282 q 568 131 557 146 q 596 115 578 115 q 739 228 640 115 l 739 150 m 249 114 q 373 227 315 114 q 431 437 431 339 q 413 501 431 477 q 366 525 395 525 q 243 407 302 525 q 184 195 184 290 q 202 136 184 157 q 249 114 219 114 z "},"e":{"ha":507,"x_min":11,"x_max":522,"o":"m 522 150 q 368 25 436 65 q 216 -16 299 -16 q 67 43 124 -16 q 11 199 11 102 q 111 459 11 342 q 332 575 210 575 q 433 543 395 575 q 471 457 471 510 q 172 229 471 317 q 314 97 199 97 q 399 121 359 97 q 522 228 440 145 l 522 150 m 167 275 q 340 456 340 324 q 293 521 340 521 q 208 453 248 521 q 167 275 167 385 z "},"f":{"ha":550,"x_min":0,"x_max":566,"o":"m 566 150 q 426 27 495 71 q 302 -16 357 -16 q 232 4 277 -16 q 182 -318 203 -145 q 12 -347 111 -328 q 87 135 34 -161 q 61 200 80 148 l 16 150 l 0 150 l 0 211 l 129 345 q 189 608 166 527 q 254 788 212 690 q 306 902 295 887 q 358 929 317 916 q 448 955 400 943 q 498 966 495 966 q 541 933 524 966 q 557 844 557 899 q 507 661 557 749 q 317 444 456 573 l 260 161 q 359 90 293 90 q 566 228 454 90 l 566 150 m 338 536 q 462 685 417 606 q 507 832 507 765 q 497 879 507 861 q 471 897 486 897 q 410 819 441 897 q 338 536 379 741 z "},"g":{"ha":665,"x_min":8,"x_max":681,"o":"m 681 150 q 475 17 595 60 q 332 -254 418 -159 q 149 -349 245 -349 q 63 -315 96 -349 q 31 -228 31 -282 q 95 -98 31 -155 q 315 14 160 -40 l 345 147 q 232 40 279 74 q 136 5 184 5 q 44 58 80 5 q 8 196 8 111 q 114 455 8 334 q 338 576 219 576 q 454 521 404 576 q 534 553 485 532 l 582 575 l 597 575 q 557 419 571 495 l 493 79 q 681 228 585 114 l 681 150 m 244 127 q 330 184 292 127 q 388 329 367 241 q 408 450 408 416 q 392 503 408 482 q 353 524 376 524 q 227 427 281 524 q 174 229 174 330 q 193 155 174 182 q 244 127 212 127 m 301 -46 q 82 -228 82 -125 q 100 -278 82 -258 q 147 -297 119 -297 q 232 -235 196 -297 q 301 -46 268 -174 z "},"h":{"ha":665,"x_min":8,"x_max":681,"o":"m 681 150 q 416 -17 520 -17 q 340 15 370 -17 q 310 94 310 46 q 372 323 310 176 q 406 428 406 404 q 379 456 406 456 q 300 419 352 456 q 192 318 249 382 q 168 18 168 193 l 17 -17 q 8 138 8 54 q 64 514 8 340 q 239 884 119 688 q 394 942 328 920 q 469 965 460 965 q 499 937 487 965 q 511 865 511 908 q 467 706 511 793 q 329 496 423 619 q 449 562 419 548 q 510 575 479 575 q 566 550 545 575 q 587 485 587 526 q 539 296 587 424 q 490 135 490 168 q 499 109 490 120 q 521 97 509 97 q 681 228 564 97 l 681 150 m 211 428 q 453 843 453 709 q 431 884 453 884 q 324 750 393 884 q 211 428 255 616 z "},"i":{"ha":334,"x_min":8,"x_max":349,"o":"m 335 840 q 215 677 335 677 q 115 713 157 677 q 176 847 155 772 q 262 814 230 814 q 335 840 299 814 m 349 150 q 111 -17 190 -17 q 38 27 68 -17 q 8 139 8 72 q 106 539 8 283 l 278 575 l 286 575 l 218 363 q 176 175 176 231 q 186 139 176 153 q 211 125 196 125 q 264 144 237 125 q 349 228 291 163 l 349 150 z "},"j":{"ha":507,"x_min":0,"x_max":522,"o":"m 507 842 q 370 676 494 676 q 267 715 311 676 q 336 846 326 791 q 427 812 391 812 q 507 842 467 812 m 522 150 q 364 35 458 85 q 270 -250 339 -151 q 127 -349 200 -349 q 50 -311 82 -349 q 18 -218 18 -273 q 197 5 18 -85 l 248 414 q 16 150 106 237 l 0 150 l 0 211 q 243 496 90 297 l 285 550 q 444 576 356 558 q 374 100 414 415 q 521 227 436 131 l 522 150 m 193 -57 q 103 -129 136 -83 q 71 -221 71 -174 q 85 -273 71 -252 q 118 -294 99 -294 q 179 -175 165 -294 l 193 -57 z "},"k":{"ha":665,"x_min":8,"x_max":681,"o":"m 681 151 q 425 -17 527 -17 q 343 17 376 -17 q 310 102 310 52 q 318 173 310 125 q 326 227 326 220 q 291 259 326 258 q 256 286 256 260 q 266 318 256 309 q 302 328 275 328 q 414 358 377 330 q 450 427 450 387 q 430 472 450 454 q 379 490 410 490 q 347 486 362 490 q 315 474 330 482 q 283 452 300 465 q 248 417 267 437 q 210 370 231 397 q 182 237 199 356 q 172 123 174 175 q 171 12 169 74 l 17 -14 q 8 113 8 38 q 63 501 8 316 q 243 882 118 686 q 410 943 340 921 q 489 965 481 965 q 521 932 505 965 q 536 864 536 900 q 496 732 536 804 q 372 559 456 661 q 468 576 430 576 q 571 544 531 576 q 611 463 611 512 q 408 297 611 350 q 488 204 488 279 l 484 143 q 522 102 484 102 q 584 128 549 102 q 681 229 618 155 l 681 151 m 236 478 l 281 528 q 479 843 479 751 q 443 885 479 885 q 346 786 401 885 q 236 478 292 687 z "},"l":{"ha":449,"x_min":8,"x_max":464,"o":"m 464 150 q 302 25 372 65 q 170 -16 233 -16 q 53 41 97 -16 q 8 192 8 97 q 70 534 8 334 q 220 901 132 733 l 392 965 q 404 968 400 968 q 436 939 424 968 q 449 861 449 910 q 385 593 449 723 q 186 317 321 464 q 180 220 180 246 q 202 126 180 161 q 260 92 224 92 q 338 118 296 92 q 464 228 379 144 l 464 150 m 204 415 q 344 629 290 511 q 397 833 397 748 q 390 874 397 859 q 371 889 382 889 q 298 764 346 889 q 204 415 250 640 z "},"m":{"ha":999,"x_min":8,"x_max":1014,"o":"m 1014 150 q 869 26 929 67 q 751 -16 808 -16 q 681 15 707 -16 q 654 98 654 46 q 691 284 654 172 q 728 421 728 397 q 705 443 728 443 q 689 438 699 443 q 666 425 679 433 q 638 401 653 415 q 607 370 623 388 q 572 332 589 353 q 536 273 542 296 l 514 176 l 473 16 l 301 -16 l 367 264 q 385 353 374 294 q 395 424 395 412 q 379 447 395 447 q 366 442 374 447 q 342 428 355 437 q 311 402 328 417 q 271 365 292 386 q 225 315 249 342 q 184 230 193 279 q 170 125 174 172 q 164 22 165 79 l 14 -14 q 8 117 8 64 q 34 333 8 241 q 118 547 60 425 l 282 579 q 214 366 238 469 q 493 578 396 578 q 550 549 528 578 q 572 473 572 520 q 566 393 572 452 q 730 543 680 508 q 822 578 780 578 q 883 548 859 578 q 907 472 907 518 q 867 286 907 399 q 827 135 827 172 q 854 97 827 97 q 904 120 872 97 q 1014 228 935 144 l 1014 150 z "},"n":{"ha":665,"x_min":8,"x_max":681,"o":"m 681 150 q 412 -16 524 -16 q 339 16 367 -16 q 311 102 311 48 q 371 323 311 174 q 403 425 403 404 q 386 447 403 447 q 361 437 376 447 q 328 411 347 428 q 290 373 311 395 q 250 330 271 354 l 212 286 q 181 221 187 255 q 168 115 171 163 q 165 18 165 79 l 16 -17 q 8 119 8 75 q 34 326 8 229 q 115 546 59 424 l 281 578 q 212 357 229 437 q 389 529 323 481 q 505 576 454 576 q 563 550 540 576 q 586 485 586 524 q 528 271 586 420 q 488 138 488 168 q 521 97 488 97 q 681 228 570 97 l 681 150 z "},"o":{"ha":608,"x_min":8,"x_max":624,"o":"m 624 150 q 557 107 589 119 q 505 94 524 94 q 408 132 456 94 q 184 -16 311 -16 q 57 43 106 -16 q 8 200 8 102 q 118 466 8 355 q 380 576 228 576 q 465 564 438 576 q 498 534 492 551 q 504 492 504 517 q 435 180 504 365 q 507 149 469 149 q 624 228 553 149 l 624 150 m 400 529 q 371 533 390 533 q 233 441 283 533 q 183 225 183 349 q 205 119 183 157 q 265 81 227 81 q 370 170 313 81 q 306 342 306 250 q 400 529 306 450 z "},"p":{"ha":782,"x_min":0,"x_max":682,"o":"m 339 460 q 431 547 388 519 q 528 575 475 575 q 639 523 596 575 q 682 385 682 470 q 579 110 682 235 q 354 -16 475 -16 q 300 -8 320 -16 q 249 26 281 -1 q 186 -318 200 -189 l 14 -349 q 136 294 62 -31 q 16 150 47 177 l 0 150 l 0 211 q 212 549 129 350 l 366 576 l 339 460 m 261 97 q 339 39 296 39 q 460 143 408 39 q 513 346 513 247 q 491 430 513 398 q 436 463 470 463 q 380 439 410 463 q 336 384 351 415 q 302 273 321 352 l 261 97 z "},"q":{"ha":724,"x_min":7,"x_max":739,"o":"m 739 150 q 416 -317 484 -114 q 241 -349 306 -330 l 382 138 q 150 -16 262 -16 q 47 32 88 -16 q 7 151 7 79 q 63 351 7 250 q 209 515 120 452 q 385 578 298 578 q 503 494 473 578 q 624 578 574 534 l 669 578 l 492 -61 q 739 228 604 96 l 739 150 m 240 104 q 386 230 317 104 q 454 446 454 355 q 437 503 454 480 q 393 525 419 525 q 246 393 313 525 q 179 167 179 262 q 197 123 179 141 q 240 104 215 104 z "},"r":{"ha":507,"x_min":0,"x_max":522,"o":"m 522 150 q 260 -17 352 -17 q 190 18 218 -17 q 161 104 161 53 q 264 361 161 200 q 154 325 214 335 q 16 150 110 243 l 0 150 l 0 211 q 96 329 53 266 q 37 406 37 355 q 73 517 37 458 q 171 576 109 576 q 224 522 224 576 q 193 400 224 479 q 390 572 306 412 l 452 575 l 389 401 q 338 252 349 292 q 326 182 326 212 q 339 136 326 153 q 375 119 353 119 q 422 136 399 119 q 522 228 444 153 l 522 150 z "},"s":{"ha":564,"x_min":0,"x_max":447,"o":"m 224 547 q 318 567 271 559 q 375 575 366 575 q 382 570 382 575 q 376 549 382 559 q 366 489 366 517 q 406 393 366 454 q 447 279 447 332 q 348 79 447 176 q 142 -17 248 -17 q 58 7 96 -17 q 20 60 20 32 q 57 121 20 76 q 111 167 95 167 q 150 111 133 167 q 208 56 167 56 q 286 94 250 56 q 322 176 322 132 q 276 290 322 219 q 215 410 230 361 q 16 150 136 283 l 0 150 l 0 211 q 224 547 166 388 z "},"t":{"ha":390,"x_min":8,"x_max":406,"o":"m 406 150 q 258 25 320 65 q 139 -16 195 -16 q 44 34 81 -16 q 8 163 8 83 q 42 349 8 233 l 72 452 l 20 449 l 41 555 l 106 558 l 170 770 l 351 807 l 282 571 l 376 576 l 354 472 l 249 464 l 203 312 q 180 186 180 233 q 196 134 180 154 q 237 114 212 114 q 306 136 272 114 q 406 228 340 158 l 406 150 z "},"u":{"ha":724,"x_min":7,"x_max":739,"o":"m 739 150 q 589 25 650 65 q 481 -16 529 -16 q 398 27 427 -16 q 370 143 370 70 q 236 22 295 61 q 121 -17 177 -17 q 38 26 69 -17 q 7 142 7 68 q 102 539 7 283 l 282 575 q 171 158 171 250 q 220 93 171 93 q 307 150 255 93 q 372 250 359 208 l 461 539 l 646 576 q 558 290 582 372 q 534 174 534 207 q 578 110 534 110 q 682 174 613 110 l 739 228 l 739 150 z "},"v":{"ha":608,"x_min":8,"x_max":624,"o":"m 624 150 q 561 111 593 123 q 511 100 529 100 q 414 138 462 100 q 158 -16 293 -16 q 48 33 87 -16 q 8 168 8 81 q 56 403 8 264 l 103 542 l 288 576 l 205 332 q 181 237 193 292 q 170 158 170 182 q 189 97 170 121 q 236 72 208 72 q 376 183 301 72 q 342 322 342 252 q 393 497 342 419 q 505 575 444 575 q 551 504 551 575 q 440 186 551 366 q 513 154 475 154 q 624 228 559 154 l 624 150 z "},"w":{"ha":940,"x_min":8,"x_max":956,"o":"m 956 150 q 890 111 923 123 q 840 100 858 100 q 743 138 791 100 q 489 -16 620 -16 q 351 90 393 -16 q 155 -16 260 -16 q 47 30 87 -16 q 8 154 8 75 q 32 328 8 239 q 106 543 56 416 l 285 576 l 235 425 q 171 154 171 229 q 188 96 171 119 q 231 74 205 74 q 339 158 285 74 q 378 379 339 264 l 433 543 l 615 576 l 539 342 q 503 163 503 229 q 520 99 503 123 q 567 75 538 75 q 635 102 603 75 q 707 182 667 128 q 671 318 671 248 q 722 498 671 420 q 836 576 772 576 q 880 510 880 576 q 770 186 880 367 q 842 154 804 154 q 956 228 887 154 l 956 150 z "},"x":{"ha":782,"x_min":0,"x_max":798,"o":"m 798 150 q 503 -17 629 -17 q 346 121 383 -17 q 163 -17 278 -17 q 77 9 116 -17 q 39 64 39 35 q 78 111 39 77 q 125 144 117 144 q 146 115 136 144 q 210 54 168 54 q 289 122 254 54 q 343 292 324 191 q 363 416 363 393 q 310 489 363 489 q 134 302 243 489 q 16 150 75 203 l 0 150 l 0 211 q 79 315 36 246 q 232 513 163 451 q 368 575 300 575 q 504 443 481 575 q 575 543 538 511 q 664 575 612 575 q 742 544 715 575 q 768 484 768 512 q 730 438 768 474 q 677 401 692 401 q 667 426 668 401 q 653 474 667 451 q 619 497 640 497 q 527 357 566 497 q 488 144 488 217 q 507 82 488 106 q 558 58 527 58 q 798 228 648 58 l 798 150 z "},"y":{"ha":724,"x_min":7,"x_max":739,"o":"m 739 150 q 464 -21 653 66 q 322 -274 401 -200 q 158 -349 243 -349 q 89 -322 115 -349 q 62 -252 62 -296 q 307 -9 62 -118 l 349 136 q 123 -7 220 -7 q 39 36 71 -7 q 7 150 7 79 q 52 370 7 252 l 117 542 l 314 576 l 229 375 q 171 155 171 229 q 212 94 171 94 q 308 162 254 94 q 399 329 362 230 l 476 542 l 661 576 l 485 46 q 739 228 640 117 l 739 150 m 288 -77 q 159 -160 204 -114 q 114 -252 114 -207 q 153 -297 114 -297 q 288 -77 228 -297 z "},"z":{"ha":665,"x_min":0,"x_max":681,"o":"m 681 150 q 542 16 589 48 q 450 -17 496 -17 q 356 5 425 -17 q 252 28 287 28 q 188 5 208 28 q 161 -17 168 -17 q 121 -16 127 -17 q 114 -11 114 -15 q 230 146 114 4 l 464 431 q 379 422 425 422 q 253 443 318 422 q 16 150 131 268 l 0 150 l 0 211 q 166 409 86 299 q 258 547 245 518 q 279 575 271 575 q 342 566 284 575 q 435 557 399 557 q 552 566 498 557 q 614 575 605 575 q 627 568 627 575 q 517 412 627 543 l 298 147 q 343 150 326 150 q 431 135 356 150 q 521 119 506 119 q 593 142 563 119 q 681 228 623 165 l 681 150 z "},"{":{"ha":547,"x_min":111,"x_max":486,"o":"m 486 -282 q 280 -216 353 -283 q 207 -64 207 -150 q 225 48 207 -24 q 243 165 243 121 q 111 309 243 286 l 111 349 q 243 497 243 372 q 225 616 243 547 q 208 720 208 684 q 279 868 208 800 q 486 939 350 937 l 486 908 q 354 781 354 880 q 371 673 354 743 q 387 553 387 604 q 336 422 387 486 q 165 329 284 359 q 341 229 294 292 q 389 104 389 166 q 372 -6 389 61 q 355 -117 355 -73 q 486 -252 355 -225 l 486 -282 z "},"|":{"ha":758,"x_min":325,"x_max":433,"o":"m 433 -347 l 325 -347 l 325 1042 l 433 1042 l 433 -347 z "},"}":{"ha":547,"x_min":61,"x_max":436,"o":"m 436 307 q 304 160 304 283 q 318 58 304 119 q 339 -62 339 -21 q 268 -211 339 -142 q 61 -282 197 -280 l 61 -252 q 193 -123 193 -226 q 177 -17 193 -87 q 160 104 160 53 q 213 235 160 172 q 382 326 265 298 q 209 425 260 361 q 158 551 158 488 q 175 657 158 585 q 192 774 192 730 q 61 908 192 882 l 61 939 q 267 873 194 940 q 340 721 340 806 q 322 605 340 673 q 304 490 304 537 q 436 349 304 371 l 436 307 z "},"~":{"ha":926,"x_min":94,"x_max":832,"o":"m 832 562 q 778 401 828 459 q 650 343 728 343 q 567 357 610 343 q 410 418 525 370 q 253 465 296 465 q 134 345 152 465 l 94 345 q 150 511 97 459 q 271 564 202 564 q 355 550 304 564 q 529 482 406 536 q 673 439 629 439 q 793 562 779 439 l 832 562 z "},"":{"ha":940,"x_min":24,"x_max":956,"o":"m 956 150 q 669 -17 800 -17 q 555 34 597 -17 q 509 179 513 85 q 363 31 427 79 q 228 -17 300 -17 q 80 63 136 -17 q 24 275 24 142 q 97 603 24 434 q 314 869 170 771 q 663 966 458 966 q 940 925 816 966 l 940 880 q 771 550 839 762 q 703 227 703 338 q 725 142 703 172 q 786 113 747 113 q 956 228 857 113 l 956 150 m 758 880 q 624 914 696 914 q 420 820 511 914 q 276 569 329 725 q 224 298 224 413 q 253 174 224 222 q 329 126 283 126 q 513 272 409 126 q 758 880 555 654 m 835 1193 q 750 1083 826 1083 q 646 1124 713 1083 q 709 1250 690 1195 q 835 1193 783 1204 m 592 1196 q 502 1084 579 1084 q 404 1126 459 1084 q 463 1250 445 1192 q 592 1196 545 1199 z "},"":{"ha":940,"x_min":24,"x_max":956,"o":"m 956 150 q 669 -17 800 -17 q 555 34 597 -17 q 509 179 513 85 q 363 31 427 79 q 228 -17 300 -17 q 80 63 136 -17 q 24 275 24 142 q 97 603 24 434 q 314 869 170 771 q 663 966 458 966 q 940 925 816 966 l 940 880 q 771 550 839 762 q 703 227 703 338 q 725 142 703 172 q 786 113 747 113 q 956 228 857 113 l 956 150 m 758 880 q 624 914 696 914 q 420 820 511 914 q 276 569 329 725 q 224 298 224 413 q 253 174 224 222 q 329 126 283 126 q 513 272 409 126 q 758 880 555 654 m 648 1296 q 741 1259 703 1296 q 779 1170 779 1223 q 742 1079 779 1117 q 652 1042 704 1042 q 561 1079 599 1042 q 524 1170 524 1117 q 561 1258 524 1221 q 648 1296 598 1296 m 652 1092 q 707 1115 684 1092 q 730 1170 730 1138 q 707 1224 730 1201 q 653 1248 684 1248 q 597 1225 621 1248 q 574 1170 574 1202 q 596 1115 574 1137 q 652 1092 619 1092 z "},"":{"ha":782,"x_min":39,"x_max":798,"o":"m 798 150 q 497 -9 666 12 l 467 -46 q 557 -146 557 -62 q 536 -212 557 -182 q 469 -266 515 -241 q 377 -296 424 -290 q 262 -302 331 -302 l 272 -249 q 414 -167 414 -249 q 340 -104 414 -107 q 421 -17 398 -47 q 143 85 247 -16 q 39 347 39 185 q 114 650 39 507 q 311 880 189 794 q 550 966 433 966 q 710 907 648 966 q 772 754 772 848 q 697 542 772 631 q 522 452 623 452 q 435 479 469 452 q 401 549 401 506 q 431 616 401 585 q 490 576 452 576 q 591 644 545 576 q 637 793 637 712 q 611 882 637 849 q 542 916 585 916 q 407 837 479 916 q 288 635 336 758 q 240 400 240 511 q 320 168 240 258 q 525 77 401 77 q 667 113 604 77 q 798 228 730 150 l 798 150 z "},"":{"ha":724,"x_min":40,"x_max":739,"o":"m 739 150 q 564 24 652 64 q 364 -16 475 -16 q 129 56 217 -16 q 40 243 40 127 q 113 420 40 344 q 335 526 185 496 q 191 711 191 581 q 290 891 191 815 q 530 966 390 966 q 677 927 631 966 q 722 854 722 887 q 688 791 722 834 q 639 749 654 749 q 612 800 621 749 q 519 916 593 916 q 415 851 462 916 q 368 705 368 787 q 496 575 368 575 q 524 573 517 575 q 532 561 532 570 q 522 504 532 535 q 496 473 511 473 q 462 477 491 473 q 411 481 433 481 q 288 422 339 481 q 236 279 236 363 q 296 130 236 189 q 449 71 357 71 q 601 111 525 71 q 739 228 677 152 l 739 150 m 724 1293 q 648 1163 705 1219 q 471 1040 591 1107 l 429 1055 q 568 1277 530 1172 l 724 1293 z "},"":{"ha":1229,"x_min":46,"x_max":1234,"o":"m 859 187 q 970 610 916 332 q 1059 889 1008 812 q 1178 966 1109 966 q 1234 903 1234 966 q 1220 851 1234 866 q 1162 829 1206 836 q 1084 781 1119 823 q 1021 608 1050 739 l 971 382 q 911 177 945 264 q 856 47 878 90 q 827 1 833 5 q 793 -7 820 -4 l 720 -16 q 691 -5 694 -17 q 685 82 689 6 q 675 196 680 158 q 635 401 669 233 q 590 739 602 568 q 533 547 585 736 q 462 293 481 357 q 408 156 443 229 q 319 34 374 83 q 191 -16 265 -16 q 86 25 125 -16 q 46 102 46 66 q 94 168 46 123 q 161 212 142 212 q 189 164 183 212 q 213 93 194 117 q 257 69 231 69 q 456 454 358 69 l 476 536 q 568 859 534 759 l 590 922 q 605 948 597 943 q 640 957 612 953 l 711 966 q 735 969 727 969 q 755 962 750 969 q 760 933 760 954 q 805 538 760 786 q 859 187 850 290 m 1117 1192 q 1048 1094 1084 1125 q 960 1063 1012 1063 q 864 1093 918 1063 q 777 1122 810 1122 q 702 1074 728 1122 l 664 1097 q 821 1230 717 1230 q 922 1201 865 1230 q 1002 1173 979 1173 q 1078 1225 1052 1173 l 1117 1192 z "},"":{"ha":882,"x_min":50,"x_max":864,"o":"m 536 956 q 313 642 382 808 q 243 321 243 475 q 282 164 243 222 q 389 107 321 107 q 668 342 523 107 q 814 778 814 577 q 794 873 814 838 q 743 908 775 908 q 634 819 684 908 q 583 661 583 730 q 629 606 583 612 q 648 587 648 604 q 618 529 648 557 q 554 500 587 500 q 486 537 513 500 q 458 629 458 574 q 547 857 458 747 q 728 966 635 966 q 827 917 791 966 q 864 779 864 867 q 770 420 864 610 q 536 107 677 229 q 272 -16 396 -16 q 113 66 176 -16 q 50 275 50 147 q 105 551 50 412 q 247 801 159 691 q 386 938 334 910 q 536 966 437 966 l 536 956 m 806 1193 q 721 1083 797 1083 q 617 1124 684 1083 q 680 1250 661 1195 q 806 1193 753 1204 m 563 1196 q 473 1084 550 1084 q 375 1126 430 1084 q 433 1250 416 1192 q 563 1196 515 1199 z "},"":{"ha":1055,"x_min":40,"x_max":1071,"o":"m 1071 150 q 806 -16 916 -16 q 698 37 748 -16 q 652 212 648 89 q 382 -16 533 -16 q 264 41 309 -16 q 220 192 220 97 q 302 530 220 294 q 372 799 372 732 q 350 875 372 846 q 293 904 328 904 q 189 841 239 904 q 139 708 139 777 q 184 606 139 647 q 201 581 201 591 q 172 526 201 558 q 118 493 142 493 q 65 533 90 493 q 40 621 40 573 q 134 858 40 750 q 338 966 227 966 q 479 899 425 966 q 533 722 533 831 q 453 370 533 594 q 397 160 397 214 q 413 105 397 125 q 457 85 429 85 q 557 155 509 85 q 632 303 604 226 q 701 529 661 380 l 760 740 q 802 878 784 824 q 826 939 821 932 q 843 949 831 946 q 888 956 854 951 l 985 966 q 1003 957 1006 966 l 971 842 q 876 464 926 682 q 825 186 825 245 q 842 114 825 141 q 888 87 859 87 q 957 115 920 87 q 1071 228 994 143 l 1071 150 m 872 1193 q 787 1083 863 1083 q 684 1124 751 1083 q 746 1250 727 1195 q 872 1193 820 1204 m 629 1196 q 539 1084 616 1084 q 441 1126 496 1084 q 500 1250 482 1192 q 629 1196 582 1199 z "},"":{"ha":724,"x_min":7,"x_max":739,"o":"m 739 150 q 584 16 631 47 q 494 -16 537 -16 q 393 174 387 -16 q 268 31 326 77 q 150 -16 211 -16 q 48 40 90 -16 q 7 178 7 96 q 63 372 7 279 q 206 521 119 464 q 361 578 294 578 q 479 500 446 578 l 618 576 l 656 576 l 596 378 q 550 172 550 228 q 591 114 550 114 q 650 142 618 114 q 739 228 682 170 l 739 150 m 243 113 q 371 228 311 113 q 431 441 431 344 q 414 501 431 479 q 368 522 397 522 q 240 407 300 522 q 179 195 179 292 q 197 135 179 158 q 243 113 215 113 m 675 901 q 599 771 656 827 q 422 648 542 715 l 380 663 q 519 885 481 780 l 675 901 z "},"":{"ha":724,"x_min":7,"x_max":739,"o":"m 739 150 q 584 16 631 47 q 494 -16 537 -16 q 393 174 387 -16 q 268 31 326 77 q 150 -16 211 -16 q 48 40 90 -16 q 7 178 7 96 q 63 372 7 279 q 206 521 119 464 q 361 578 294 578 q 479 500 446 578 l 618 576 l 656 576 l 596 378 q 550 172 550 228 q 591 114 550 114 q 650 142 618 114 q 739 228 682 170 l 739 150 m 243 113 q 371 228 311 113 q 431 441 431 344 q 414 501 431 479 q 368 522 397 522 q 240 407 300 522 q 179 195 179 292 q 197 135 179 158 q 243 113 215 113 m 411 661 l 379 643 q 151 880 222 736 l 308 907 q 411 661 326 790 z "},"":{"ha":724,"x_min":7,"x_max":739,"o":"m 739 150 q 584 16 631 47 q 494 -16 537 -16 q 393 174 387 -16 q 268 31 326 77 q 150 -16 211 -16 q 48 40 90 -16 q 7 178 7 96 q 63 372 7 279 q 206 521 119 464 q 361 578 294 578 q 479 500 446 578 l 618 576 l 656 576 l 596 378 q 550 172 550 228 q 591 114 550 114 q 650 142 618 114 q 739 228 682 170 l 739 150 m 243 113 q 371 228 311 113 q 431 441 431 344 q 414 501 431 479 q 368 522 397 522 q 240 407 300 522 q 179 195 179 292 q 197 135 179 158 q 243 113 215 113 m 616 673 l 610 647 q 438 806 509 671 q 329 705 379 738 q 189 644 278 672 l 196 677 q 406 904 321 765 l 552 930 q 564 773 552 824 q 616 673 575 722 z "},"":{"ha":724,"x_min":7,"x_max":739,"o":"m 739 150 q 584 16 631 47 q 494 -16 537 -16 q 393 174 387 -16 q 268 31 326 77 q 150 -16 211 -16 q 48 40 90 -16 q 7 178 7 96 q 63 372 7 279 q 206 521 119 464 q 361 578 294 578 q 479 500 446 578 l 618 576 l 656 576 l 596 378 q 550 172 550 228 q 591 114 550 114 q 650 142 618 114 q 739 228 682 170 l 739 150 m 243 113 q 371 228 311 113 q 431 441 431 344 q 414 501 431 479 q 368 522 397 522 q 240 407 300 522 q 179 195 179 292 q 197 135 179 158 q 243 113 215 113 m 643 802 q 558 692 634 692 q 454 733 522 692 q 517 859 498 804 q 643 802 591 812 m 400 804 q 310 693 387 693 q 212 734 267 693 q 271 859 253 800 q 400 804 353 808 z "},"":{"ha":724,"x_min":7,"x_max":739,"o":"m 739 150 q 584 16 631 47 q 494 -16 537 -16 q 393 174 387 -16 q 268 31 326 77 q 150 -16 211 -16 q 48 40 90 -16 q 7 178 7 96 q 63 372 7 279 q 206 521 119 464 q 361 578 294 578 q 479 500 446 578 l 618 576 l 656 576 l 596 378 q 550 172 550 228 q 591 114 550 114 q 650 142 618 114 q 739 228 682 170 l 739 150 m 243 113 q 371 228 311 113 q 431 441 431 344 q 414 501 431 479 q 368 522 397 522 q 240 407 300 522 q 179 195 179 292 q 197 135 179 158 q 243 113 215 113 m 649 800 q 580 702 616 733 q 492 671 544 671 q 396 701 450 671 q 309 730 342 730 q 234 682 260 730 l 196 705 q 353 838 249 838 q 454 809 397 838 q 534 781 511 781 q 610 833 584 781 l 649 800 z "},"":{"ha":724,"x_min":7,"x_max":739,"o":"m 739 150 q 584 16 631 47 q 494 -16 537 -16 q 393 174 387 -16 q 268 31 326 77 q 150 -16 211 -16 q 48 40 90 -16 q 7 178 7 96 q 63 372 7 279 q 206 521 119 464 q 361 578 294 578 q 479 500 446 578 l 618 576 l 656 576 l 596 378 q 550 172 550 228 q 591 114 550 114 q 650 142 618 114 q 739 228 682 170 l 739 150 m 243 113 q 371 228 311 113 q 431 441 431 344 q 414 501 431 479 q 368 522 397 522 q 240 407 300 522 q 179 195 179 292 q 197 135 179 158 q 243 113 215 113 m 456 904 q 549 867 511 904 q 587 778 587 831 q 550 687 587 725 q 460 650 512 650 q 369 687 407 650 q 332 778 332 725 q 369 866 332 829 q 456 904 406 904 m 460 700 q 515 723 492 700 q 538 778 538 746 q 515 832 538 809 q 461 856 492 856 q 405 833 429 856 q 382 778 382 810 q 405 723 382 745 q 460 700 427 700 z "},"":{"ha":507,"x_min":9,"x_max":522,"o":"m 522 150 q 310 1 400 31 l 269 -46 q 359 -146 359 -62 q 338 -212 359 -182 q 272 -266 317 -241 q 180 -296 227 -290 q 65 -302 134 -302 l 75 -249 q 216 -167 216 -249 q 143 -104 216 -107 q 227 -14 201 -47 q 212 -16 222 -16 q 67 42 124 -16 q 9 187 9 99 q 115 454 9 332 q 343 576 220 576 q 441 543 404 576 q 479 456 479 509 q 472 427 479 437 q 446 408 465 418 l 367 371 q 346 364 353 364 q 336 378 336 364 q 340 413 336 383 q 345 450 345 444 q 332 498 345 480 q 298 517 319 517 q 208 444 249 517 q 167 277 167 370 q 205 148 167 196 q 309 100 244 100 q 412 131 363 100 q 522 228 460 163 l 522 150 z "},"":{"ha":507,"x_min":11,"x_max":566,"o":"m 522 150 q 368 25 436 65 q 216 -16 299 -16 q 67 43 124 -16 q 11 199 11 102 q 111 459 11 342 q 332 575 210 575 q 433 543 395 575 q 471 457 471 510 q 172 229 471 317 q 314 97 199 97 q 399 121 359 97 q 522 228 440 145 l 522 150 m 167 275 q 340 456 340 324 q 293 521 340 521 q 208 453 248 521 q 167 275 167 385 m 566 901 q 491 771 548 827 q 313 648 433 715 l 272 663 q 410 885 373 780 l 566 901 z "},"":{"ha":507,"x_min":11,"x_max":522,"o":"m 522 150 q 368 25 436 65 q 216 -16 299 -16 q 67 43 124 -16 q 11 199 11 102 q 111 459 11 342 q 332 575 210 575 q 433 543 395 575 q 471 457 471 510 q 172 229 471 317 q 314 97 199 97 q 399 121 359 97 q 522 228 440 145 l 522 150 m 167 275 q 340 456 340 324 q 293 521 340 521 q 208 453 248 521 q 167 275 167 385 m 302 661 l 271 643 q 43 880 114 736 l 199 907 q 302 661 217 790 z "},"":{"ha":507,"x_min":11,"x_max":522,"o":"m 522 150 q 368 25 436 65 q 216 -16 299 -16 q 67 43 124 -16 q 11 199 11 102 q 111 459 11 342 q 332 575 210 575 q 433 543 395 575 q 471 457 471 510 q 172 229 471 317 q 314 97 199 97 q 399 121 359 97 q 522 228 440 145 l 522 150 m 167 275 q 340 456 340 324 q 293 521 340 521 q 208 453 248 521 q 167 275 167 385 m 507 673 l 502 647 q 330 806 401 671 q 220 705 271 738 q 81 644 170 672 l 87 677 q 298 904 212 765 l 444 930 q 455 773 444 824 q 507 673 467 722 z "},"":{"ha":507,"x_min":11,"x_max":535,"o":"m 522 150 q 368 25 436 65 q 216 -16 299 -16 q 67 43 124 -16 q 11 199 11 102 q 111 459 11 342 q 332 575 210 575 q 433 543 395 575 q 471 457 471 510 q 172 229 471 317 q 314 97 199 97 q 399 121 359 97 q 522 228 440 145 l 522 150 m 167 275 q 340 456 340 324 q 293 521 340 521 q 208 453 248 521 q 167 275 167 385 m 535 802 q 450 692 526 692 q 347 733 414 692 q 409 859 390 804 q 535 802 483 812 m 292 804 q 202 693 279 693 q 104 734 159 693 q 163 859 145 800 q 292 804 245 808 z "},"":{"ha":334,"x_min":8,"x_max":480,"o":"m 349 150 q 111 -17 186 -17 q 38 27 68 -17 q 8 139 8 72 q 106 539 8 283 l 278 575 l 286 575 l 218 363 q 176 175 176 231 q 186 139 176 153 q 211 125 196 125 q 264 144 237 125 q 349 228 291 164 l 349 150 m 480 901 q 405 771 462 827 q 227 648 347 715 l 186 663 q 324 885 287 780 l 480 901 z "},"":{"ha":334,"x_min":-43,"x_max":349,"o":"m 349 150 q 111 -17 186 -17 q 38 27 68 -17 q 8 139 8 72 q 106 539 8 283 l 278 575 l 286 575 l 218 363 q 176 175 176 231 q 186 139 176 153 q 211 125 196 125 q 264 144 237 125 q 349 228 291 164 l 349 150 m 217 661 l 185 643 q -43 880 28 736 l 114 907 q 217 661 132 790 z "},"":{"ha":334,"x_min":-5,"x_max":421,"o":"m 349 150 q 111 -17 186 -17 q 38 27 68 -17 q 8 139 8 72 q 106 539 8 283 l 278 575 l 286 575 l 218 363 q 176 175 176 231 q 186 139 176 153 q 211 125 196 125 q 264 144 237 125 q 349 228 291 164 l 349 150 m 421 673 l 416 647 q 243 806 315 671 q 134 705 184 738 q -5 644 83 672 l 1 677 q 212 904 126 765 l 357 930 q 369 773 357 824 q 421 673 380 722 z "},"":{"ha":334,"x_min":8,"x_max":463,"o":"m 349 150 q 111 -17 186 -17 q 38 27 68 -17 q 8 139 8 72 q 106 539 8 283 l 278 575 l 286 575 l 218 363 q 176 175 176 231 q 186 139 176 153 q 211 125 196 125 q 264 144 237 125 q 349 228 291 164 l 349 150 m 463 802 q 378 692 454 692 q 274 733 341 692 q 336 859 317 804 q 463 802 410 812 m 220 804 q 130 693 207 693 q 32 734 87 693 q 90 859 73 800 q 220 804 172 808 z "},"":{"ha":665,"x_min":8,"x_max":681,"o":"m 681 150 q 412 -16 524 -16 q 339 16 367 -16 q 311 102 311 48 q 371 323 311 174 q 403 425 403 404 q 386 447 403 447 q 361 437 376 447 q 328 411 347 428 q 290 373 311 395 q 250 330 271 354 l 212 286 q 181 221 187 255 q 168 115 171 163 q 165 18 165 79 l 16 -17 q 8 119 8 75 q 34 326 8 229 q 115 546 59 424 l 281 578 q 212 357 229 437 q 389 529 323 481 q 505 576 454 576 q 563 550 540 576 q 586 485 586 524 q 528 271 586 420 q 488 138 488 168 q 521 97 488 97 q 681 228 570 97 l 681 150 m 620 800 q 551 702 587 733 q 463 671 515 671 q 367 701 421 671 q 279 730 313 730 q 205 682 231 730 l 167 705 q 324 838 220 838 q 425 809 368 838 q 505 781 482 781 q 581 833 555 781 l 620 800 z "},"":{"ha":608,"x_min":8,"x_max":624,"o":"m 624 150 q 557 107 589 119 q 505 94 524 94 q 408 132 456 94 q 184 -16 311 -16 q 57 43 106 -16 q 8 200 8 102 q 118 466 8 355 q 380 576 228 576 q 465 564 438 576 q 498 534 492 551 q 504 492 504 517 q 435 180 504 365 q 507 149 469 149 q 624 228 553 149 l 624 150 m 400 529 q 371 533 390 533 q 233 441 283 533 q 183 225 183 349 q 205 119 183 157 q 265 81 227 81 q 370 170 313 81 q 306 342 306 250 q 400 529 306 450 m 618 901 q 542 771 600 827 q 365 648 485 715 l 323 663 q 462 885 425 780 l 618 901 z "},"":{"ha":608,"x_min":8,"x_max":624,"o":"m 624 150 q 557 107 589 119 q 505 94 524 94 q 408 132 456 94 q 184 -16 311 -16 q 57 43 106 -16 q 8 200 8 102 q 118 466 8 355 q 380 576 228 576 q 465 564 438 576 q 498 534 492 551 q 504 492 504 517 q 435 180 504 365 q 507 149 469 149 q 624 228 553 149 l 624 150 m 400 529 q 371 533 390 533 q 233 441 283 533 q 183 225 183 349 q 205 119 183 157 q 265 81 227 81 q 370 170 313 81 q 306 342 306 250 q 400 529 306 450 m 354 661 l 322 643 q 94 880 165 736 l 251 907 q 354 661 269 790 z "},"":{"ha":608,"x_min":8,"x_max":624,"o":"m 624 150 q 557 107 589 119 q 505 94 524 94 q 408 132 456 94 q 184 -16 311 -16 q 57 43 106 -16 q 8 200 8 102 q 118 466 8 355 q 380 576 228 576 q 465 564 438 576 q 498 534 492 551 q 504 492 504 517 q 435 180 504 365 q 507 149 469 149 q 624 228 553 149 l 624 150 m 400 529 q 371 533 390 533 q 233 441 283 533 q 183 225 183 349 q 205 119 183 157 q 265 81 227 81 q 370 170 313 81 q 306 342 306 250 q 400 529 306 450 m 538 673 l 532 647 q 360 806 431 671 q 251 705 301 738 q 111 644 200 672 l 118 677 q 328 904 243 765 l 474 930 q 486 773 474 824 q 538 673 497 722 z "},"":{"ha":608,"x_min":8,"x_max":624,"o":"m 624 150 q 557 107 589 119 q 505 94 524 94 q 408 132 456 94 q 184 -16 311 -16 q 57 43 106 -16 q 8 200 8 102 q 118 466 8 355 q 380 576 228 576 q 465 564 438 576 q 498 534 492 551 q 504 492 504 517 q 435 180 504 365 q 507 149 469 149 q 624 228 553 149 l 624 150 m 400 529 q 371 533 390 533 q 233 441 283 533 q 183 225 183 349 q 205 119 183 157 q 265 81 227 81 q 370 170 313 81 q 306 342 306 250 q 400 529 306 450 m 586 802 q 501 692 577 692 q 397 733 465 692 q 460 859 441 804 q 586 802 534 812 m 343 804 q 253 693 330 693 q 155 734 210 693 q 214 859 196 800 q 343 804 296 808 z "},"":{"ha":608,"x_min":8,"x_max":624,"o":"m 624 150 q 557 107 589 119 q 505 94 524 94 q 408 132 456 94 q 184 -16 311 -16 q 57 43 106 -16 q 8 200 8 102 q 118 466 8 355 q 380 576 228 576 q 465 564 438 576 q 498 534 492 551 q 504 492 504 517 q 435 180 504 365 q 507 149 469 149 q 624 228 553 149 l 624 150 m 400 529 q 371 533 390 533 q 233 441 283 533 q 183 225 183 349 q 205 119 183 157 q 265 81 227 81 q 370 170 313 81 q 306 342 306 250 q 400 529 306 450 m 571 800 q 502 702 538 733 q 414 671 466 671 q 318 701 372 671 q 231 730 264 730 q 156 682 182 730 l 118 705 q 275 838 171 838 q 376 809 319 838 q 456 781 433 781 q 532 833 506 781 l 571 800 z "},"":{"ha":724,"x_min":7,"x_max":739,"o":"m 739 150 q 589 25 650 65 q 481 -16 529 -16 q 398 27 427 -16 q 370 143 370 70 q 236 22 295 61 q 121 -17 177 -17 q 38 26 69 -17 q 7 142 7 68 q 102 539 7 283 l 282 575 q 171 158 171 250 q 220 93 171 93 q 307 150 255 93 q 372 250 359 208 l 461 539 l 646 576 q 558 290 582 372 q 534 174 534 207 q 578 110 534 110 q 682 174 613 110 l 739 228 l 739 150 m 675 901 q 599 771 656 827 q 422 648 542 715 l 380 663 q 519 885 481 780 l 675 901 z "},"":{"ha":724,"x_min":7,"x_max":739,"o":"m 739 150 q 589 25 650 65 q 481 -16 529 -16 q 398 27 427 -16 q 370 143 370 70 q 236 22 295 61 q 121 -17 177 -17 q 38 26 69 -17 q 7 142 7 68 q 102 539 7 283 l 282 575 q 171 158 171 250 q 220 93 171 93 q 307 150 255 93 q 372 250 359 208 l 461 539 l 646 576 q 558 290 582 372 q 534 174 534 207 q 578 110 534 110 q 682 174 613 110 l 739 228 l 739 150 m 411 661 l 379 643 q 151 880 222 736 l 308 907 q 411 661 326 790 z "},"":{"ha":724,"x_min":7,"x_max":739,"o":"m 739 150 q 589 25 650 65 q 481 -16 529 -16 q 398 27 427 -16 q 370 143 370 70 q 236 22 295 61 q 121 -17 177 -17 q 38 26 69 -17 q 7 142 7 68 q 102 539 7 283 l 282 575 q 171 158 171 250 q 220 93 171 93 q 307 150 255 93 q 372 250 359 208 l 461 539 l 646 576 q 558 290 582 372 q 534 174 534 207 q 578 110 534 110 q 682 174 613 110 l 739 228 l 739 150 m 595 673 l 589 647 q 417 806 488 671 q 308 705 358 738 q 168 644 257 672 l 175 677 q 385 904 300 765 l 531 930 q 543 773 531 824 q 595 673 554 722 z "},"":{"ha":724,"x_min":7,"x_max":739,"o":"m 739 150 q 589 25 650 65 q 481 -16 529 -16 q 398 27 427 -16 q 370 143 370 70 q 236 22 295 61 q 121 -17 177 -17 q 38 26 69 -17 q 7 142 7 68 q 102 539 7 283 l 282 575 q 171 158 171 250 q 220 93 171 93 q 307 150 255 93 q 372 250 359 208 l 461 539 l 646 576 q 558 290 582 372 q 534 174 534 207 q 578 110 534 110 q 682 174 613 110 l 739 228 l 739 150 m 643 802 q 558 692 634 692 q 454 733 522 692 q 517 859 498 804 q 643 802 591 812 m 400 804 q 310 693 387 693 q 212 734 267 693 q 271 859 253 800 q 400 804 353 808 z "},"":{"ha":782,"x_min":72,"x_max":775,"o":"m 775 654 q 696 454 751 545 q 481 525 593 475 q 322 -245 389 206 q 96 -311 202 -297 q 164 -64 116 -216 q 275 259 213 89 q 368 530 336 430 q 245 474 296 492 q 136 457 195 457 q 72 464 109 457 l 132 642 q 389 591 277 593 q 424 935 417 724 q 619 968 554 944 q 592 826 614 891 q 501 590 569 760 q 775 654 608 595 z "},"":{"ha":555,"x_min":125,"x_max":595,"o":"m 359 939 q 526 869 456 939 q 595 704 595 800 q 526 538 595 608 q 359 469 456 469 q 194 538 262 469 q 125 704 125 608 q 194 870 125 801 q 359 939 262 939 m 359 559 q 463 602 420 559 q 505 704 505 645 q 463 807 505 764 q 359 850 420 850 q 257 807 300 850 q 214 704 214 764 q 256 602 214 644 q 359 559 299 559 z "},"":{"ha":507,"x_min":17,"x_max":519,"o":"m 519 150 q 222 -16 374 -16 q 182 -14 205 -16 l 100 -309 l 68 -309 l 153 -5 q 17 193 17 42 q 102 432 17 319 q 315 575 187 546 l 412 921 l 444 921 l 349 579 q 485 454 485 568 q 473 422 485 433 q 412 388 461 411 q 353 366 363 366 q 343 376 343 366 q 348 414 343 382 q 353 452 353 446 q 330 509 353 487 l 224 134 q 314 97 264 97 q 511 208 414 97 l 519 208 l 519 150 m 300 517 q 205 430 240 504 q 171 283 171 357 q 199 163 171 208 l 300 517 z "},"":{"ha":882,"x_min":21,"x_max":871,"o":"m 310 541 q 442 865 347 763 q 690 966 536 966 q 829 929 787 966 q 871 860 871 892 q 821 802 871 836 q 754 768 771 768 q 732 812 736 768 q 708 896 726 878 q 661 914 690 914 q 577 860 610 914 q 525 686 544 806 l 501 533 q 547 529 517 529 q 649 541 615 529 q 696 566 682 552 q 715 579 709 579 q 732 566 732 579 q 706 494 732 548 q 660 430 680 440 q 606 419 640 419 l 478 419 q 358 180 448 301 q 480 159 371 180 q 614 138 590 138 q 762 222 715 138 l 777 222 l 808 210 q 542 -17 719 -17 q 380 31 477 -17 q 265 72 307 66 q 98 -17 181 -17 q 43 1 64 -17 q 21 47 21 19 q 72 132 21 95 q 236 179 123 169 q 290 432 275 279 q 194 425 224 432 q 140 390 163 418 q 121 379 131 379 q 107 393 107 379 q 133 468 107 414 q 189 531 158 522 q 310 541 220 541 z "},"":{"ha":724,"x_min":21,"x_max":720,"o":"m 304 578 q 249 734 249 658 q 317 901 249 835 q 490 966 386 966 q 647 927 575 966 q 720 868 720 888 q 698 799 720 854 q 669 732 677 743 q 650 721 662 721 q 627 728 637 721 q 616 745 616 735 l 627 814 q 591 892 627 863 q 494 922 555 922 q 402 891 439 922 q 366 815 366 860 q 488 618 366 744 q 633 336 633 466 q 441 89 633 195 q 500 -72 500 18 q 430 -242 500 -174 q 257 -310 361 -310 q 100 -270 178 -310 q 21 -200 21 -229 q 45 -119 21 -186 q 87 -52 70 -52 q 113 -59 101 -52 q 125 -75 125 -66 l 120 -104 q 115 -147 115 -138 q 156 -229 115 -196 q 257 -262 196 -262 q 350 -232 313 -262 q 387 -155 387 -201 q 289 16 387 -90 q 152 188 190 121 q 114 321 114 255 q 160 453 114 393 q 304 578 206 513 m 415 126 q 515 260 515 180 q 494 333 515 294 q 332 534 473 373 q 258 472 285 508 q 232 400 232 435 q 262 318 232 361 q 415 126 292 274 z "},"":{"ha":486,"x_min":79,"x_max":465,"o":"m 272 653 q 409 596 352 653 q 465 458 465 538 q 409 321 465 378 q 272 264 352 264 q 136 321 193 264 q 79 458 79 378 q 136 596 79 538 q 272 653 193 653 z "},"":{"ha":750,"x_min":0,"x_max":750,"o":"m 750 890 q 662 878 688 890 q 629 839 635 866 q 623 751 623 812 l 623 -300 l 555 -300 l 555 868 l 432 868 l 432 -300 l 364 -300 l 364 292 q 86 385 173 295 q 0 608 0 475 q 51 791 0 718 q 174 892 102 865 q 453 920 246 920 l 750 920 l 750 890 z "},"":{"ha":839,"x_min":0,"x_max":722,"o":"m 277 857 q 586 966 500 966 q 683 924 644 966 q 722 818 722 882 q 672 685 722 745 q 517 554 623 625 q 718 335 718 513 q 611 99 718 213 q 390 -16 504 -16 q 244 65 294 -16 q 191 -313 204 -155 q 21 -349 115 -334 q 106 243 38 -186 l 16 150 l 0 150 l 0 211 l 127 349 l 161 501 q 201 644 169 536 q 277 857 234 751 m 330 485 q 531 657 474 593 q 589 787 589 720 q 567 858 589 831 q 511 885 546 885 q 406 804 441 885 q 330 485 370 724 m 245 81 q 319 150 301 135 q 350 165 338 165 q 378 117 374 165 q 427 41 378 41 q 516 106 475 41 q 557 252 557 172 q 513 396 557 341 q 400 452 470 452 q 365 443 378 452 q 310 403 351 435 l 245 81 z "},"":{"ha":1038,"x_min":37,"x_max":1000,"o":"m 519 961 q 859 820 718 961 q 1000 481 1000 679 q 859 141 1000 283 q 519 0 718 0 q 179 141 321 0 q 37 481 37 282 q 179 820 37 679 q 519 961 321 961 m 519 60 q 815 183 692 60 q 939 481 939 307 q 815 778 939 654 q 519 901 692 901 q 222 778 346 901 q 98 481 98 654 q 222 183 98 307 q 519 60 346 60 m 790 211 l 627 211 l 488 461 l 456 461 l 456 326 q 475 248 456 260 q 538 235 494 235 l 538 211 l 250 211 l 250 235 q 307 252 292 233 q 322 326 322 270 l 322 647 q 308 721 322 707 q 261 736 294 734 l 261 760 l 507 760 q 645 746 600 760 q 719 695 690 732 q 747 611 747 658 q 627 471 747 507 l 720 301 q 790 235 751 241 l 790 211 m 456 496 q 493 493 471 493 q 571 527 541 493 q 602 614 602 561 q 574 699 602 667 q 456 730 547 730 l 456 496 z "},"":{"ha":1038,"x_min":37,"x_max":1000,"o":"m 518 961 q 859 820 717 961 q 1000 481 1000 679 q 859 141 1000 282 q 518 0 717 0 q 179 141 320 0 q 37 481 37 283 q 179 820 37 679 q 518 961 320 961 m 518 60 q 815 183 692 60 q 939 481 939 307 q 815 778 939 654 q 518 901 692 901 q 222 778 345 901 q 98 481 98 654 q 222 183 98 307 q 518 60 345 60 m 746 591 l 720 591 q 661 699 706 661 q 553 737 616 737 q 424 673 470 737 q 378 492 378 609 q 430 292 378 347 q 550 237 483 237 q 726 332 651 237 l 726 283 q 511 197 644 197 q 305 275 385 197 q 225 473 225 352 q 310 687 225 602 q 524 772 395 772 q 631 754 583 772 q 689 736 679 736 q 720 771 715 736 l 746 771 l 746 591 z "},"":{"ha":1389,"x_min":-1,"x_max":1396,"o":"m 1396 372 l 1083 372 l 1083 396 q 1148 412 1135 396 q 1161 484 1161 428 l 1161 827 l 945 372 l 928 372 l 713 827 l 713 485 q 724 414 713 431 q 790 396 736 397 l 790 372 l 600 372 l 600 396 q 662 412 650 397 q 673 488 673 427 l 673 804 q 662 879 673 861 q 600 895 650 897 l 600 920 l 848 920 l 1006 583 l 1161 920 l 1396 920 l 1396 895 q 1341 881 1355 896 q 1328 803 1328 867 l 1328 484 q 1338 417 1328 435 q 1396 396 1349 399 l 1396 372 m 525 766 l 501 766 q 477 848 498 822 q 427 879 456 873 q 345 885 397 885 l 345 486 q 356 414 345 431 q 414 396 367 396 l 414 372 l 106 372 l 106 396 q 165 412 155 399 q 175 489 175 425 l 175 885 q 96 879 125 885 q 46 847 67 873 q 20 766 24 822 l -1 766 l -1 920 l 525 920 l 525 766 z "},"":{"ha":463,"x_min":250,"x_max":545,"o":"m 545 901 q 469 771 526 827 q 292 648 412 715 l 250 663 q 389 885 351 780 l 545 901 z "},"":{"ha":463,"x_min":123,"x_max":554,"o":"m 554 802 q 469 692 545 692 q 366 733 433 692 q 428 859 409 804 q 554 802 502 812 m 311 804 q 221 693 298 693 q 123 734 178 693 q 182 859 164 800 q 311 804 264 808 z "},"":{"ha":762,"x_min":21,"x_max":750,"o":"m 750 189 l 329 189 l 204 -35 l 136 4 l 239 189 l 21 189 l 21 265 l 282 265 l 389 458 l 21 458 l 21 534 l 432 534 l 558 762 l 627 724 l 521 534 l 750 534 l 750 458 l 479 458 l 371 265 l 750 265 l 750 189 z "},"":{"ha":1186,"x_min":45,"x_max":1202,"o":"m 1202 150 q 1031 21 1120 57 q 840 -16 942 -16 q 522 192 597 -16 q 382 34 454 84 q 248 -16 309 -16 q 102 66 159 -16 q 45 277 45 148 q 121 607 45 439 q 340 873 198 776 q 673 970 482 970 q 860 943 770 970 q 993 971 929 971 q 1141 930 1091 971 q 1192 859 1192 888 q 1159 793 1192 837 q 1107 750 1126 750 q 1080 806 1089 750 q 990 918 1062 918 q 885 853 930 918 q 839 701 839 788 q 872 612 839 644 q 965 579 906 579 l 994 582 q 1003 572 1003 582 q 990 514 1003 553 q 968 475 978 475 q 930 478 955 475 q 896 481 906 481 q 766 426 817 481 q 715 283 715 370 q 775 130 715 189 q 929 71 834 71 q 1202 228 1077 71 l 1202 150 m 814 522 q 696 602 733 561 q 660 710 660 644 q 762 893 660 815 q 650 918 713 918 q 439 821 532 918 q 293 561 346 723 q 240 285 240 399 q 271 170 240 214 q 350 126 302 126 q 430 161 391 126 q 511 278 470 196 q 583 401 552 359 q 669 476 613 442 q 814 522 725 509 z "},"":{"ha":882,"x_min":45,"x_max":892,"o":"m 892 947 l 844 886 q 864 781 864 842 q 770 421 864 611 q 536 109 677 231 q 271 -14 395 -14 q 179 5 229 -14 l 136 -52 l 104 -26 l 144 28 q 45 279 45 120 q 74 483 45 385 q 171 693 104 582 q 295 868 237 804 q 400 951 353 932 q 517 970 447 970 l 530 970 q 534 966 534 970 q 515 943 534 958 q 327 680 415 858 q 239 319 239 501 q 265 189 239 245 l 511 514 q 456 629 456 555 q 544 860 456 751 q 728 970 632 970 q 823 926 784 970 l 856 968 l 892 947 m 790 884 q 742 911 771 911 q 632 822 684 911 q 581 664 581 732 q 595 625 581 640 l 790 884 m 289 151 q 390 107 329 107 q 666 340 517 107 q 814 783 814 572 q 806 835 814 819 l 636 608 q 646 589 646 603 q 621 534 646 559 q 557 503 596 509 l 289 151 z "},"":{"ha":990,"x_min":36,"x_max":954,"o":"m 443 453 q 551 604 491 568 q 694 640 610 640 q 879 561 804 640 q 954 357 954 482 q 879 151 954 231 q 717 72 803 72 q 601 115 652 72 q 489 267 550 157 q 269 109 410 109 q 102 179 168 109 q 36 358 36 250 q 96 536 36 465 q 244 607 157 607 q 345 578 298 607 q 443 453 392 550 m 509 315 q 600 179 552 222 q 720 136 648 136 q 860 198 805 136 q 916 357 916 260 q 859 519 916 452 q 724 587 802 587 q 657 573 686 587 q 607 531 629 558 q 564 452 585 503 l 509 315 m 416 378 l 424 400 q 243 546 359 546 q 121 494 168 546 q 74 359 74 442 q 119 219 74 276 q 229 161 164 161 q 331 205 285 161 q 416 378 376 250 z "},"":{"ha":926,"x_min":92,"x_max":835,"o":"m 835 514 l 515 514 l 515 197 l 408 197 l 408 514 l 92 514 l 92 621 l 408 621 l 408 940 l 515 940 l 515 621 l 835 621 l 835 514 m 835 -33 l 92 -33 l 92 74 l 835 74 l 835 -33 z "},"":{"ha":762,"x_min":40,"x_max":730,"o":"m 730 163 l 40 482 l 40 568 l 730 888 l 730 802 l 129 525 l 730 249 l 730 163 m 730 0 l 40 0 l 40 76 l 730 76 l 730 0 z "},"":{"ha":762,"x_min":40,"x_max":730,"o":"m 730 482 l 40 163 l 40 249 l 642 525 l 40 802 l 40 888 l 730 568 l 730 482 m 730 0 l 40 0 l 40 76 l 730 76 l 730 0 z "},"":{"ha":945,"x_min":47,"x_max":928,"o":"m 928 960 q 583 546 695 837 l 754 546 l 753 496 l 567 496 l 550 441 l 736 441 l 736 392 l 536 392 l 437 18 l 271 -16 l 395 392 l 227 392 l 227 441 l 407 441 l 422 496 l 244 496 l 244 546 l 429 546 q 437 644 437 585 q 401 846 437 770 q 300 922 366 922 q 184 873 234 922 q 134 770 134 823 q 179 665 134 705 q 196 642 196 650 q 168 593 196 623 q 111 564 139 564 q 66 601 84 564 q 47 689 47 639 q 128 882 47 792 q 302 971 208 971 q 452 884 397 971 q 507 642 507 798 q 505 591 507 618 q 814 960 606 840 l 928 960 z "},"":{"ha":800,"x_min":-85,"x_max":737,"o":"m 737 612 l 615 195 q 593 98 593 117 q 604 72 593 83 q 628 60 614 60 q 704 155 665 60 l 729 142 q 549 -17 673 -17 q 467 15 498 -17 q 436 97 436 46 q 440 155 436 122 q 318 20 370 57 q 207 -17 267 -17 q 103 43 138 -17 q 70 -137 75 -39 q 43 -266 65 -235 q -18 -297 20 -297 q -65 -276 -46 -297 q -85 -225 -85 -256 q -33 -98 -85 -184 q 34 24 18 -12 q 77 155 49 61 l 208 612 l 382 612 l 272 235 q 250 132 250 164 q 264 97 250 111 q 297 83 277 83 q 397 150 345 83 q 492 359 450 217 l 566 612 l 737 612 z "},"":{"ha":686,"x_min":45,"x_max":675,"o":"m 200 760 l 170 760 q 427 965 258 965 q 605 879 536 965 q 675 624 675 793 q 563 180 675 381 q 273 -21 452 -21 q 106 41 168 -21 q 45 207 45 102 q 158 492 45 369 q 418 615 271 615 q 629 486 568 615 l 632 486 q 639 612 639 584 q 576 800 639 731 q 404 868 513 868 q 200 760 273 868 m 618 427 q 425 579 563 579 q 231 450 304 579 q 158 179 158 321 q 195 62 158 106 q 292 18 231 18 q 481 129 384 18 q 618 427 578 239 z "},"":{"ha":990,"x_min":20,"x_max":965,"o":"m 965 161 q 928 -1 943 77 q 905 -150 913 -79 q 836 -139 863 -142 q 799 -135 809 -135 l 100 -135 q 60 -137 86 -135 q 20 -139 33 -139 l 504 414 l 22 1044 q 106 1037 70 1040 q 167 1035 142 1035 l 857 1035 l 865 814 l 838 814 q 802 909 817 883 q 747 954 787 936 q 696 968 726 963 q 625 972 666 972 l 260 972 l 639 475 l 231 4 l 746 4 q 866 39 832 4 q 933 161 901 75 l 965 161 z "},"":{"ha":1143,"x_min":35,"x_max":1116,"o":"m 1116 -140 l 689 -140 l 689 -109 q 797 -81 770 -109 q 824 4 824 -53 l 824 966 l 326 966 l 326 4 q 353 -81 326 -53 q 461 -109 380 -109 l 461 -140 l 35 -140 l 35 -109 q 143 -81 117 -109 q 170 4 170 -53 l 170 873 q 137 977 170 942 q 37 1011 104 1011 l 37 1043 l 1113 1043 l 1113 1011 q 1014 977 1046 1011 q 981 873 981 942 l 981 4 q 1007 -81 981 -53 q 1116 -109 1033 -109 l 1116 -140 z "},"":{"ha":762,"x_min":14,"x_max":736,"o":"m 736 210 q 685 41 732 104 q 571 -22 637 -22 q 477 40 517 -22 q 437 231 437 102 q 438 285 437 259 q 441 334 439 311 l 465 557 l 309 557 q 242 53 268 134 q 153 -27 216 -27 q 103 -6 127 -27 q 79 50 79 15 q 129 137 79 81 q 183 239 178 193 l 224 557 l 158 557 q 105 544 131 557 q 66 513 79 530 l 37 469 l 14 469 q 95 624 47 572 q 207 676 144 676 l 725 676 l 725 557 l 550 557 q 537 394 542 475 q 533 231 533 313 q 559 140 533 175 q 623 106 585 106 q 673 125 647 106 q 703 176 699 144 q 706 199 705 191 q 707 210 707 208 l 736 210 z "},"":{"ha":380,"x_min":7,"x_max":408,"o":"m 408 1194 q 388 1150 408 1167 q 337 1133 368 1133 q 296 1150 312 1133 q 267 1167 281 1167 q 248 1157 254 1167 q 241 1128 241 1147 q 255 954 241 1105 q 268 581 268 804 q 248 99 268 238 q 194 -92 227 -39 q 148 -134 176 -120 q 90 -149 120 -149 q 32 -125 57 -149 q 7 -67 7 -101 q 24 -23 7 -41 q 68 -5 41 -5 q 112 -27 91 -5 q 142 -50 134 -50 q 169 -19 159 -50 q 179 85 179 11 q 175 218 179 110 q 171 600 171 327 q 182 1033 171 926 q 210 1179 194 1139 q 257 1249 230 1226 q 314 1272 284 1272 q 380 1250 353 1272 q 408 1194 408 1228 z "},"":{"ha":492,"x_min":78,"x_max":576,"o":"m 576 676 q 411 562 465 562 q 360 591 378 562 q 342 693 342 619 q 256 594 295 626 q 176 562 217 562 q 107 602 136 562 q 78 697 78 641 q 160 882 78 798 q 317 966 243 966 q 400 914 380 966 l 494 966 l 521 966 q 450 689 450 752 q 478 650 450 650 q 527 677 499 650 q 576 725 555 705 l 576 676 m 239 650 q 327 729 286 650 q 368 872 368 808 q 356 914 368 898 q 325 930 344 930 q 237 851 277 930 q 196 708 196 772 q 209 667 196 684 q 239 650 221 650 z "},"":{"ha":419,"x_min":79,"x_max":498,"o":"m 498 676 q 424 639 466 639 q 353 663 393 639 q 200 562 284 562 q 112 602 145 562 q 79 710 79 642 q 153 890 79 814 q 328 966 227 966 q 402 951 387 966 q 416 905 416 936 q 368 696 416 809 q 422 673 395 673 q 498 726 465 673 l 498 676 m 345 936 q 235 880 272 941 q 199 725 199 818 q 214 654 199 680 q 254 628 229 628 q 323 688 289 628 q 282 806 282 750 q 297 874 282 846 q 345 936 311 903 z "},"":{"ha":1067,"x_min":47,"x_max":1021,"o":"m 1021 0 l 612 0 l 634 211 q 787 347 743 251 q 831 559 831 442 q 759 812 831 713 q 534 911 686 911 q 310 812 382 911 q 237 559 237 713 q 281 347 237 442 q 435 211 326 251 l 457 0 l 47 0 l 47 225 l 68 225 q 95 160 79 180 q 160 140 111 140 l 379 140 l 376 179 q 145 329 215 223 q 75 554 75 435 q 205 843 75 730 q 534 956 336 956 q 863 843 733 956 q 994 554 994 730 q 924 329 994 435 q 692 179 854 223 l 690 140 l 909 140 q 974 160 958 140 q 1001 225 990 180 l 1021 225 l 1021 0 z "},"":{"ha":839,"x_min":-40,"x_max":854,"o":"m 854 150 q 698 25 770 65 q 550 -16 627 -16 q 412 38 473 -16 q 351 195 351 92 q 98 -16 228 -16 q 0 38 41 -16 q -40 168 -40 91 q 14 360 -40 264 q 152 517 68 456 q 304 578 235 578 q 411 479 382 578 l 555 578 l 586 578 l 567 511 q 713 578 643 578 q 784 547 755 578 q 812 469 812 516 q 737 328 812 395 q 509 231 662 261 q 653 100 533 100 q 744 126 703 100 q 854 228 786 153 l 854 150 m 195 111 q 313 224 261 111 q 364 435 364 336 q 311 514 364 514 q 191 404 252 514 q 129 191 129 294 q 147 133 129 155 q 195 111 165 111 m 509 272 q 642 347 598 290 q 685 458 685 404 q 674 496 685 481 q 646 511 663 511 q 509 272 552 511 z "},"":{"ha":608,"x_min":4,"x_max":624,"o":"m 624 150 q 557 107 589 119 q 505 94 524 94 q 408 132 456 94 q 180 -16 313 -16 q 100 5 138 -16 l 40 -72 l 16 -56 l 74 24 q 20 97 37 59 q 4 195 4 135 q 117 468 4 360 q 368 576 231 576 q 472 558 426 576 l 517 616 l 541 599 l 496 538 q 501 493 501 509 q 435 180 501 361 q 507 149 469 149 q 624 228 553 149 l 624 150 m 396 529 q 367 533 386 533 q 229 438 279 533 q 178 215 178 342 q 183 171 178 205 l 302 330 q 320 435 302 391 q 396 529 338 479 m 367 167 q 310 286 321 223 l 193 132 q 262 78 222 78 q 367 167 312 78 z "},"":{"ha":608,"x_min":29,"x_max":574,"o":"m 323 808 q 385 937 359 907 q 464 966 412 966 q 539 947 505 966 q 574 921 574 928 q 566 903 574 916 q 505 764 534 852 q 389 819 457 819 q 349 812 366 819 q 323 808 332 806 m 492 353 q 534 320 515 353 q 553 248 553 288 q 459 66 553 147 q 249 -16 366 -16 q 90 45 151 -16 q 29 203 29 105 q 288 541 29 385 q 369 600 344 574 q 393 653 393 626 q 392 664 393 655 q 390 675 390 673 q 410 688 390 688 q 435 654 423 688 q 447 596 447 621 q 426 532 447 561 q 340 452 406 503 q 238 344 274 402 q 203 215 203 286 q 237 105 203 146 q 326 64 271 64 q 419 98 383 64 q 456 186 456 132 q 400 261 456 255 q 376 275 376 263 q 423 322 376 291 q 492 353 470 353 z "},"":{"ha":449,"x_min":26,"x_max":433,"o":"m 184 808 q 248 942 222 917 q 314 966 274 966 q 393 947 353 966 q 433 921 433 928 q 425 907 433 916 q 367 764 388 849 q 253 821 311 821 q 211 813 229 821 q 184 808 193 806 m 253 690 q 296 553 296 634 q 247 369 296 494 q 199 168 199 244 q 205 90 199 115 q 212 60 212 65 q 199 40 212 48 q 129 8 185 32 q 61 -16 72 -16 q 38 25 49 -16 q 26 114 26 66 q 131 410 26 246 q 215 555 199 515 q 232 624 232 595 q 229 676 232 640 l 253 690 z "},"":{"ha":926,"x_min":92,"x_max":835,"o":"m 835 155 l 728 155 l 728 486 l 92 486 l 92 593 l 835 593 l 835 155 z "},"":{"ha":762,"x_min":14,"x_max":715,"o":"m 715 1267 l 507 -53 l 170 644 l 36 579 l 14 625 l 216 725 l 490 165 l 667 1274 l 715 1267 z "},"":{"ha":694,"x_min":0,"x_max":694,"o":"m 211 614 q 316 645 283 614 q 382 767 348 676 q 464 900 416 858 q 585 942 513 942 q 665 918 635 942 q 694 854 694 894 q 674 799 694 821 q 623 777 653 777 q 580 793 597 777 q 562 832 562 810 q 573 870 562 846 q 583 895 583 893 q 566 909 583 909 q 519 883 537 909 q 501 815 501 857 l 507 697 q 498 614 507 662 l 603 614 l 586 532 l 482 532 l 414 193 q 369 -3 394 96 q 303 -169 343 -102 q 212 -268 263 -235 q 106 -300 161 -300 q 31 -277 61 -300 q 0 -221 0 -254 q 20 -174 0 -194 q 69 -154 41 -154 q 115 -169 98 -154 q 132 -207 132 -183 q 128 -225 132 -210 q 123 -243 123 -240 q 143 -258 123 -258 q 180 -235 166 -258 q 195 -172 195 -212 l 189 -45 q 216 168 189 31 l 290 532 l 195 532 l 211 614 z "},"":{"ha":762,"x_min":35,"x_max":728,"o":"m 693 593 l 728 593 q 663 431 713 488 q 536 375 612 375 q 330 454 471 375 q 187 507 236 507 q 66 380 86 507 l 35 380 q 98 542 48 485 q 221 599 148 599 q 294 586 253 599 q 446 513 334 572 q 576 471 526 471 q 693 593 674 471 m 693 330 l 728 330 q 663 169 713 225 q 536 113 612 113 q 354 178 471 113 q 187 244 237 244 q 66 118 86 244 l 35 118 q 98 278 48 222 q 221 335 148 335 q 297 320 253 335 q 446 250 341 306 q 576 208 526 208 q 693 330 674 208 z "},"":{"ha":850,"x_min":8,"x_max":844,"o":"m 453 956 l 844 0 l 8 0 l 453 956 m 403 718 l 100 68 l 672 68 l 403 718 z "},"":{"ha":608,"x_min":28,"x_max":597,"o":"m 486 612 q 564 576 530 602 q 597 546 597 551 q 509 439 597 536 q 421 315 421 342 q 456 193 421 290 q 492 94 492 97 q 438 63 492 83 q 378 43 385 43 q 364 69 372 43 l 285 313 q 282 332 282 326 q 353 449 282 354 q 486 612 423 543 m 236 612 q 295 585 248 612 q 343 547 343 557 q 324 517 343 541 q 274 464 305 493 q 205 383 242 435 q 168 313 168 332 q 203 194 168 290 q 237 93 237 98 q 186 63 237 81 q 125 45 134 45 q 72 184 117 45 q 28 335 28 323 q 129 485 28 358 q 236 612 229 612 z "},"":{"ha":608,"x_min":28,"x_max":600,"o":"m 500 612 q 557 478 513 612 q 600 315 600 345 q 512 190 600 292 q 399 49 425 87 q 390 43 395 43 q 331 72 380 43 q 281 106 281 101 q 371 211 281 111 q 461 342 461 311 q 425 463 461 374 q 389 567 389 551 q 438 592 389 572 q 500 612 487 612 m 245 612 q 304 483 262 612 q 346 328 346 353 q 325 275 346 309 q 234 160 304 241 q 151 60 163 78 q 135 43 139 43 q 75 74 121 43 q 28 110 28 104 q 95 193 28 117 q 183 297 163 270 q 204 346 204 325 q 189 415 204 364 q 154 509 173 467 q 135 566 135 551 q 182 591 135 570 q 245 612 229 612 z "},"":{"ha":1389,"x_min":109,"x_max":1280,"o":"m 1280 142 q 1225 15 1251 45 q 1152 -16 1200 -16 q 1032 28 1091 -16 q 1100 187 1071 86 q 1163 141 1142 152 q 1213 131 1184 131 q 1280 142 1238 131 m 818 142 q 763 15 788 45 q 689 -16 738 -16 q 570 28 629 -16 q 639 187 607 84 q 700 141 680 152 q 750 131 721 131 q 818 142 775 131 m 355 142 q 301 15 326 45 q 227 -16 276 -16 q 109 28 165 -16 q 176 187 144 83 q 240 141 220 151 q 289 131 260 131 q 355 142 313 131 z "},"":{"ha":347,"x_min":0,"x_max":0,"o":""},"":{"ha":940,"x_min":24,"x_max":956,"o":"m 956 150 q 669 -17 800 -17 q 555 34 597 -17 q 509 179 513 85 q 363 31 427 79 q 228 -17 300 -17 q 80 63 136 -17 q 24 275 24 142 q 97 603 24 434 q 314 869 170 771 q 663 966 458 966 q 940 925 816 966 l 940 880 q 771 550 839 762 q 703 227 703 338 q 725 142 703 172 q 786 113 747 113 q 956 228 857 113 l 956 150 m 758 880 q 624 914 696 914 q 420 820 511 914 q 276 569 329 725 q 224 298 224 413 q 253 174 224 222 q 329 126 283 126 q 513 272 409 126 q 758 880 555 654 m 616 1053 l 585 1035 q 357 1272 428 1128 l 513 1299 q 616 1053 531 1182 z "},"":{"ha":940,"x_min":24,"x_max":956,"o":"m 956 150 q 669 -17 800 -17 q 555 34 597 -17 q 509 179 513 85 q 363 31 427 79 q 228 -17 300 -17 q 80 63 136 -17 q 24 275 24 142 q 97 603 24 434 q 314 869 170 771 q 663 966 458 966 q 940 925 816 966 l 940 880 q 771 550 839 762 q 703 227 703 338 q 725 142 703 172 q 786 113 747 113 q 956 228 857 113 l 956 150 m 758 880 q 624 914 696 914 q 420 820 511 914 q 276 569 329 725 q 224 298 224 413 q 253 174 224 222 q 329 126 283 126 q 513 272 409 126 q 758 880 555 654 m 861 1192 q 792 1094 829 1125 q 704 1063 756 1063 q 608 1093 663 1063 q 521 1122 554 1122 q 446 1074 472 1122 l 408 1097 q 566 1230 461 1230 q 667 1201 610 1230 q 746 1173 724 1173 q 823 1225 796 1173 l 861 1192 z "},"":{"ha":882,"x_min":50,"x_max":864,"o":"m 536 956 q 313 642 382 808 q 243 321 243 475 q 282 164 243 222 q 389 107 321 107 q 668 342 523 107 q 814 778 814 577 q 794 873 814 838 q 743 908 775 908 q 634 819 684 908 q 583 661 583 730 q 629 606 583 612 q 648 587 648 604 q 618 529 648 557 q 554 500 587 500 q 486 537 513 500 q 458 629 458 574 q 547 857 458 747 q 728 966 635 966 q 827 917 791 966 q 864 779 864 867 q 770 420 864 610 q 536 107 677 229 q 272 -16 396 -16 q 113 66 176 -16 q 50 275 50 147 q 105 551 50 412 q 247 801 159 691 q 386 938 334 910 q 536 966 437 966 l 536 956 m 839 1192 q 770 1094 806 1125 q 682 1063 734 1063 q 586 1093 640 1063 q 498 1122 532 1122 q 424 1074 450 1122 l 386 1097 q 543 1230 439 1230 q 644 1201 587 1230 q 724 1173 701 1173 q 800 1225 774 1173 l 839 1192 z "},"":{"ha":1447,"x_min":50,"x_max":1463,"o":"m 1463 150 q 1292 21 1375 55 q 1104 -14 1209 -14 q 862 59 945 -14 q 778 236 778 132 q 848 411 778 328 q 1076 525 919 494 q 939 642 979 556 q 800 545 876 584 q 558 137 717 288 q 268 -14 399 -14 q 111 64 171 -14 q 50 271 50 142 q 104 550 50 411 q 249 802 157 689 q 398 940 340 915 q 509 965 456 965 q 533 957 533 965 q 507 926 533 948 q 313 643 387 819 q 240 318 240 467 q 278 161 240 218 q 379 104 315 104 q 568 221 467 104 q 736 517 669 338 q 628 494 680 494 q 518 539 562 494 q 475 653 475 584 q 555 866 475 766 q 726 965 636 965 q 816 919 784 965 q 848 791 848 873 q 823 624 848 722 q 929 705 862 646 q 1044 898 930 830 q 1265 965 1157 965 q 1395 926 1343 965 q 1447 854 1447 887 q 1411 790 1447 834 q 1360 746 1375 746 q 1339 796 1341 746 q 1251 905 1337 905 q 1150 844 1195 905 q 1105 701 1105 783 q 1135 606 1105 642 q 1246 571 1164 571 q 1263 568 1260 571 q 1267 558 1267 566 q 1256 507 1267 541 q 1236 473 1245 473 l 1150 479 q 1026 419 1079 479 q 974 275 974 358 q 1034 128 974 186 q 1189 71 1095 71 q 1463 228 1334 71 l 1463 150 m 762 590 q 799 796 799 733 q 730 908 799 908 q 638 828 677 908 q 599 677 599 749 q 625 599 599 630 q 690 568 651 568 q 762 590 728 568 z "},"":{"ha":839,"x_min":8,"x_max":856,"o":"m 856 151 q 536 -17 677 -17 q 368 81 430 -17 q 191 -17 279 -17 q 59 43 111 -17 q 8 199 8 104 q 118 467 8 356 q 382 578 227 578 q 501 519 498 578 q 657 579 585 579 q 758 546 719 579 q 798 461 798 513 q 503 232 798 311 q 639 102 528 102 q 743 133 692 102 q 856 229 793 164 l 856 151 m 407 530 q 370 534 386 534 q 232 443 281 534 q 183 228 183 351 q 205 118 183 157 q 265 79 227 79 q 351 138 299 79 q 350 159 350 148 q 363 243 350 193 q 302 345 302 272 q 407 530 302 454 m 500 277 q 668 458 668 330 q 619 522 668 522 q 544 454 581 522 q 500 277 507 386 z "},"":{"ha":694,"x_min":-7,"x_max":701,"o":"m 701 286 l -7 286 l -7 410 l 701 410 l 701 286 z "},"":{"ha":1389,"x_min":-7,"x_max":1396,"o":"m 1396 286 l -7 286 l -7 410 l 1396 410 l 1396 286 z "},"":{"ha":665,"x_min":37,"x_max":652,"o":"m 652 929 q 537 853 575 888 q 500 771 500 819 q 572 685 500 712 q 590 672 590 678 q 562 634 590 663 q 481 541 534 606 q 372 692 372 603 q 447 858 372 785 q 643 970 522 931 l 652 929 m 318 928 q 204 853 241 888 q 167 771 167 819 q 239 684 167 712 q 257 672 257 677 q 223 628 257 663 q 147 539 189 593 q 37 692 37 604 q 113 859 37 785 q 310 970 189 932 l 318 928 z "},"":{"ha":665,"x_min":35,"x_max":647,"o":"m 536 970 q 647 807 647 912 q 580 656 647 728 q 375 538 513 585 l 367 582 q 483 656 446 620 q 519 737 519 692 q 497 790 519 766 q 451 820 475 814 q 428 839 428 826 q 455 871 428 842 q 536 970 483 901 m 201 970 q 287 902 260 939 q 314 808 314 865 q 41 534 314 630 l 35 579 q 149 653 113 617 q 186 736 186 689 q 165 788 186 764 q 113 821 144 812 q 94 838 94 827 q 127 876 94 838 q 201 970 159 914 z "},"":{"ha":334,"x_min":33,"x_max":314,"o":"m 314 925 q 163 771 163 852 q 237 682 163 709 q 253 671 253 675 q 221 630 253 665 q 144 538 189 595 q 33 699 33 596 q 106 855 33 779 q 306 970 180 931 l 314 925 z "},"":{"ha":334,"x_min":33,"x_max":314,"o":"m 205 970 q 314 810 314 913 q 245 654 314 724 q 43 538 176 585 l 33 579 q 148 655 111 621 q 186 737 186 690 q 117 822 186 798 q 96 836 96 829 q 119 868 96 842 q 205 970 179 932 z "},"":{"ha":928,"x_min":92,"x_max":836,"o":"m 464 718 q 511 699 492 718 q 530 652 530 680 q 511 604 530 624 q 464 585 492 585 q 417 605 436 585 q 397 654 397 625 q 417 699 397 680 q 464 718 437 718 m 836 317 l 92 317 l 92 424 l 836 424 l 836 317 m 464 155 q 511 136 492 155 q 530 89 530 117 q 511 42 530 62 q 464 22 492 22 q 416 42 436 22 q 396 89 396 62 q 416 136 396 117 q 464 155 435 155 z "},"":{"ha":686,"x_min":31,"x_max":652,"o":"m 652 517 l 383 0 l 300 0 l 31 517 l 300 1035 l 383 1035 l 652 517 m 569 517 l 342 960 l 115 517 l 342 75 l 569 517 z "},"":{"ha":724,"x_min":7,"x_max":739,"o":"m 739 150 q 464 -21 653 66 q 322 -274 401 -200 q 158 -349 243 -349 q 89 -322 115 -349 q 62 -252 62 -296 q 307 -9 62 -118 l 349 136 q 123 -7 220 -7 q 39 36 71 -7 q 7 150 7 79 q 52 370 7 252 l 117 542 l 314 576 l 229 375 q 171 155 171 229 q 212 94 171 94 q 308 162 254 94 q 399 329 362 230 l 476 542 l 661 576 l 485 46 q 739 228 640 117 l 739 150 m 288 -77 q 159 -160 204 -114 q 114 -252 114 -207 q 153 -297 114 -297 q 288 -77 228 -297 m 643 802 q 558 692 634 692 q 454 733 522 692 q 517 859 498 804 q 643 802 591 812 m 400 804 q 310 693 387 693 q 212 734 267 693 q 271 859 253 800 q 400 804 353 808 z "},"":{"ha":1055,"x_min":25,"x_max":1071,"o":"m 1071 150 q 822 9 1003 66 q 664 -262 758 -175 q 469 -350 570 -350 q 387 -322 418 -350 q 355 -248 355 -294 q 643 -1 355 -102 l 659 62 q 742 389 726 336 l 781 518 q 749 450 773 504 q 540 90 631 186 q 359 -7 448 -7 q 249 46 292 -7 q 207 184 207 99 q 283 511 207 292 q 359 804 359 731 q 336 879 359 849 q 277 908 313 908 q 172 846 221 908 q 123 714 123 785 q 170 610 123 650 q 186 586 186 595 q 159 530 186 566 q 106 494 132 494 q 51 534 77 494 q 25 619 25 574 q 113 855 25 739 q 323 971 201 971 q 466 903 410 971 q 521 726 521 835 q 437 366 521 596 q 380 140 380 206 q 425 79 380 79 q 637 328 508 79 q 869 926 766 576 q 886 949 874 944 q 967 963 898 955 q 1042 971 1037 971 q 1057 961 1059 971 l 1021 814 l 916 354 q 843 74 894 259 q 1071 228 983 118 l 1071 150 m 627 -61 q 466 -146 525 -96 q 407 -241 407 -197 q 425 -283 407 -267 q 468 -300 442 -300 q 556 -241 519 -300 q 627 -61 593 -183 m 900 1193 q 815 1083 891 1083 q 711 1124 779 1083 q 774 1250 755 1195 q 900 1193 848 1204 m 657 1196 q 567 1084 644 1084 q 469 1126 524 1084 q 528 1250 510 1192 q 657 1196 610 1199 z "},"":{"ha":115,"x_min":-268,"x_max":403,"o":"m 403 965 l -197 -161 l -268 -161 l 335 965 l 403 965 z "},"":{"ha":956,"x_min":125,"x_max":803,"o":"m 803 186 l 730 114 l 644 200 q 465 142 559 142 q 283 200 370 142 l 197 114 l 125 186 l 211 272 q 154 453 154 354 q 211 633 154 550 l 125 720 l 196 791 l 283 704 q 464 762 370 762 q 644 704 557 762 l 730 791 l 803 720 l 715 632 q 774 452 774 548 q 715 272 774 356 l 803 186 m 464 243 q 611 305 550 243 q 672 453 672 367 q 611 600 672 538 q 464 661 549 661 q 317 600 378 661 q 256 453 256 538 q 317 305 256 367 q 464 243 378 243 z "},"":{"ha":390,"x_min":46,"x_max":361,"o":"m 227 583 q 256 612 250 612 q 313 582 265 612 q 361 545 361 552 q 347 526 361 543 l 227 383 q 186 314 186 336 q 199 256 186 291 l 241 134 q 248 115 241 133 q 254 94 254 96 q 239 79 254 85 l 165 52 q 143 43 146 43 q 114 100 134 43 l 71 225 q 46 329 46 294 q 136 472 46 361 l 227 583 z "},"":{"ha":390,"x_min":46,"x_max":361,"o":"m 161 52 q 157 46 159 50 q 153 43 155 43 q 92 73 137 43 q 46 110 46 104 q 92 164 46 112 q 173 259 138 216 q 215 315 208 301 q 222 345 222 329 q 176 494 222 387 q 153 566 153 549 q 198 591 153 569 q 264 612 244 612 q 277 595 269 612 q 323 463 285 577 q 361 322 361 348 q 330 258 361 296 l 161 52 z "},"":{"ha":782,"x_min":0,"x_max":798,"o":"m 798 150 q 660 27 717 68 q 554 -14 604 -14 q 458 171 463 -14 q 343 23 378 59 q 277 -12 307 -12 q 229 4 256 -12 q 180 -315 204 -125 l 14 -349 q 83 131 18 -212 l 56 187 l 16 150 l 0 150 l 0 211 l 123 330 q 216 695 174 575 q 314 922 258 816 q 478 968 452 968 q 523 933 505 968 q 541 844 541 899 q 486 636 541 732 q 314 439 431 541 l 258 165 q 319 100 290 100 q 363 124 341 100 q 471 264 385 148 q 555 539 497 377 q 737 578 723 578 l 668 368 q 628 180 628 248 q 639 138 628 155 q 668 122 650 122 q 715 143 690 122 q 798 228 740 164 l 798 150 m 334 526 q 448 674 406 591 q 489 829 489 757 q 456 901 489 901 q 402 822 431 901 q 350 615 374 743 l 334 526 m 783 840 q 663 679 781 679 q 562 713 602 679 q 625 847 601 770 q 711 814 677 814 q 783 840 747 814 z "},"":{"ha":882,"x_min":0,"x_max":897,"o":"m 897 150 q 606 -14 726 -14 q 444 149 469 -14 q 342 26 385 66 q 261 -14 298 -14 q 215 8 244 -14 q 184 -321 191 -164 q 17 -347 60 -341 q 68 135 37 -39 l 41 184 l 16 150 l 0 150 l 0 211 l 104 322 q 300 922 163 668 q 461 968 428 968 q 509 934 491 968 q 528 843 528 900 q 471 639 528 736 q 294 435 414 542 l 244 175 q 317 94 279 94 q 443 216 366 94 q 496 511 450 355 q 652 900 542 667 l 732 935 q 833 966 804 966 q 865 931 852 966 q 879 844 879 896 q 616 313 879 594 q 611 232 611 241 q 636 127 611 166 q 703 89 661 89 q 789 123 744 89 q 897 228 834 157 l 897 150 m 319 529 q 433 679 391 594 q 475 836 475 764 q 440 901 475 901 q 319 529 387 901 m 637 418 q 777 628 726 515 q 828 836 828 741 q 808 888 828 888 q 637 418 747 888 z "},"":{"ha":882,"x_min":47,"x_max":884,"o":"m 884 694 q 806 496 861 587 q 583 572 717 508 q 550 383 550 454 q 554 335 550 366 q 439 72 474 249 q 668 150 581 150 q 745 139 704 150 l 684 -36 q 535 8 584 -1 q 428 17 487 18 q 415 -271 413 -135 q 216 -310 321 -305 q 237 -191 220 -245 q 318 24 254 -138 q 47 -36 188 10 q 129 161 59 48 q 340 86 214 143 q 374 254 374 186 q 367 332 374 287 q 484 568 446 425 q 254 501 353 501 q 186 507 210 501 l 245 682 q 498 633 427 631 q 524 935 524 807 q 721 965 632 937 q 695 844 713 905 q 610 633 677 783 q 884 694 729 640 z "},"":{"ha":275,"x_min":11,"x_max":260,"o":"m 260 530 q 204 404 230 434 q 129 374 179 374 q 11 416 71 374 q 79 575 45 468 q 143 529 123 539 q 192 519 164 519 q 260 530 216 519 z "},"":{"ha":334,"x_min":31,"x_max":311,"o":"m 201 200 q 285 129 258 165 q 311 40 311 92 q 45 -239 311 -129 l 31 -197 q 146 -114 109 -149 q 183 -33 183 -79 q 115 53 183 26 q 92 69 92 61 q 120 102 92 76 q 201 200 149 127 z "},"":{"ha":665,"x_min":33,"x_max":646,"o":"m 211 200 q 289 128 264 165 q 314 39 314 91 q 41 -235 314 -134 l 33 -192 q 147 -117 109 -151 q 186 -36 186 -83 q 121 50 186 22 q 100 68 100 60 q 171 153 100 70 l 211 200 m 542 196 q 621 128 596 163 q 646 40 646 93 q 375 -239 646 -134 l 367 -192 q 484 -117 446 -153 q 521 -32 521 -81 q 458 47 521 20 q 432 68 432 60 q 461 104 432 74 q 542 196 490 134 z "},"":{"ha":1390,"x_min":46,"x_max":1495,"o":"m 403 829 q 482 822 443 822 q 764 895 597 822 q 954 968 930 968 q 977 943 977 968 q 972 928 977 935 l 176 -339 l 61 -339 l 812 860 q 482 772 604 772 q 395 779 439 772 q 314 593 371 652 q 186 534 257 534 q 86 578 125 534 q 46 688 46 621 q 79 817 46 743 q 163 931 111 891 q 243 971 216 971 q 261 951 261 971 q 236 901 261 940 q 160 682 160 786 q 175 614 160 640 q 215 589 191 589 q 289 640 245 589 q 349 796 332 690 q 302 880 302 827 q 317 944 302 916 q 350 971 332 971 q 403 829 403 971 m 1493 -52 q 1489 -89 1495 -83 q 1466 -96 1484 -96 q 1384 -278 1443 -215 q 1258 -340 1326 -340 q 1160 -298 1200 -340 q 1121 -191 1121 -255 q 1158 -42 1121 -117 q 1244 65 1195 33 q 1315 97 1293 97 q 1335 81 1335 97 q 1314 37 1335 72 q 1234 -201 1234 -88 q 1247 -263 1234 -241 q 1284 -286 1261 -286 q 1359 -234 1316 -286 q 1422 -78 1402 -182 q 1387 -46 1397 -63 q 1377 4 1377 -29 q 1390 71 1377 45 q 1423 97 1403 97 q 1474 -45 1474 97 l 1493 -52 m 1026 -52 q 1023 -89 1028 -83 q 999 -96 1017 -96 q 919 -277 978 -214 q 793 -340 860 -340 q 694 -297 734 -340 q 654 -191 654 -254 q 691 -42 654 -117 q 777 65 728 33 q 848 97 827 97 q 868 81 868 97 q 848 37 868 68 q 766 -201 766 -90 q 780 -263 766 -241 q 818 -286 794 -286 q 893 -234 850 -286 q 956 -78 936 -182 q 920 -46 930 -63 q 909 4 909 -29 q 923 71 909 44 q 957 97 937 97 q 1007 -45 1007 97 l 1026 -52 z "},"":{"ha":940,"x_min":24,"x_max":956,"o":"m 956 150 q 669 -17 800 -17 q 555 34 597 -17 q 509 179 513 85 q 363 31 427 79 q 228 -17 300 -17 q 80 63 136 -17 q 24 275 24 142 q 97 603 24 434 q 314 869 170 771 q 663 966 458 966 q 940 925 816 966 l 940 880 q 771 550 839 762 q 703 227 703 338 q 725 142 703 172 q 786 113 747 113 q 956 228 857 113 l 956 150 m 758 880 q 624 914 696 914 q 420 820 511 914 q 276 569 329 725 q 224 298 224 413 q 253 174 224 222 q 329 126 283 126 q 513 272 409 126 q 758 880 555 654 m 807 1065 l 802 1039 q 629 1198 701 1063 q 520 1097 570 1130 q 380 1036 469 1064 l 387 1069 q 597 1296 512 1157 l 743 1322 q 755 1165 743 1216 q 807 1065 766 1114 z "},"":{"ha":724,"x_min":40,"x_max":739,"o":"m 739 150 q 564 24 652 64 q 364 -16 475 -16 q 129 56 217 -16 q 40 243 40 127 q 113 420 40 344 q 335 526 185 496 q 191 711 191 581 q 290 891 191 815 q 530 966 390 966 q 677 927 631 966 q 722 854 722 887 q 688 791 722 834 q 639 749 654 749 q 612 800 621 749 q 519 916 593 916 q 415 851 462 916 q 368 705 368 787 q 496 575 368 575 q 524 573 517 575 q 532 561 532 570 q 522 504 532 535 q 496 473 511 473 q 462 477 491 473 q 411 481 433 481 q 288 422 339 481 q 236 279 236 363 q 296 130 236 189 q 449 71 357 71 q 601 111 525 71 q 739 228 677 152 l 739 150 m 699 1065 l 693 1039 q 521 1198 592 1063 q 411 1097 462 1130 q 272 1036 361 1064 l 279 1069 q 489 1296 404 1157 l 635 1322 q 646 1165 635 1216 q 699 1065 658 1114 z "},"":{"ha":940,"x_min":24,"x_max":956,"o":"m 956 150 q 669 -17 800 -17 q 555 34 597 -17 q 509 179 513 85 q 363 31 427 79 q 228 -17 300 -17 q 80 63 136 -17 q 24 275 24 142 q 97 603 24 434 q 314 869 170 771 q 663 966 458 966 q 940 925 816 966 l 940 880 q 771 550 839 762 q 703 227 703 338 q 725 142 703 172 q 786 113 747 113 q 956 228 857 113 l 956 150 m 758 880 q 624 914 696 914 q 420 820 511 914 q 276 569 329 725 q 224 298 224 413 q 253 174 224 222 q 329 126 283 126 q 513 272 409 126 q 758 880 555 654 m 873 1293 q 798 1163 855 1219 q 621 1040 741 1107 l 579 1055 q 718 1277 680 1172 l 873 1293 z "},"":{"ha":724,"x_min":40,"x_max":739,"o":"m 739 150 q 564 24 652 64 q 364 -16 475 -16 q 129 56 217 -16 q 40 243 40 127 q 113 420 40 344 q 335 526 185 496 q 191 711 191 581 q 290 891 191 815 q 530 966 390 966 q 677 927 631 966 q 722 854 722 887 q 688 791 722 834 q 639 749 654 749 q 612 800 621 749 q 519 916 593 916 q 415 851 462 916 q 368 705 368 787 q 496 575 368 575 q 524 573 517 575 q 532 561 532 570 q 522 504 532 535 q 496 473 511 473 q 462 477 491 473 q 411 481 433 481 q 288 422 339 481 q 236 279 236 363 q 296 130 236 189 q 449 71 357 71 q 601 111 525 71 q 739 228 677 152 l 739 150 m 706 1193 q 621 1083 697 1083 q 517 1124 585 1083 q 580 1250 561 1195 q 706 1193 654 1204 m 463 1196 q 373 1084 450 1084 q 275 1126 330 1084 q 334 1250 316 1192 q 463 1196 416 1199 z "},"":{"ha":724,"x_min":40,"x_max":739,"o":"m 739 150 q 564 24 652 64 q 364 -16 475 -16 q 129 56 217 -16 q 40 243 40 127 q 113 420 40 344 q 335 526 185 496 q 191 711 191 581 q 290 891 191 815 q 530 966 390 966 q 677 927 631 966 q 722 854 722 887 q 688 791 722 834 q 639 749 654 749 q 612 800 621 749 q 519 916 593 916 q 415 851 462 916 q 368 705 368 787 q 496 575 368 575 q 524 573 517 575 q 532 561 532 570 q 522 504 532 535 q 496 473 511 473 q 462 477 491 473 q 411 481 433 481 q 288 422 339 481 q 236 279 236 363 q 296 130 236 189 q 449 71 357 71 q 601 111 525 71 q 739 228 677 152 l 739 150 m 501 1053 l 469 1035 q 241 1272 313 1128 l 398 1299 q 501 1053 416 1182 z "},"":{"ha":839,"x_min":33,"x_max":858,"o":"m 720 852 q 599 825 653 825 q 523 841 566 825 q 458 857 480 857 q 369 819 408 857 q 330 729 330 780 q 374 654 330 684 q 396 625 396 637 q 370 575 396 605 q 319 546 343 546 q 270 583 292 546 q 248 665 248 619 q 345 867 248 767 q 542 966 443 966 q 618 950 571 966 q 699 933 665 933 q 768 957 735 933 q 791 966 783 966 q 819 956 802 966 q 836 933 836 945 q 800 886 836 926 q 725 757 746 827 q 682 541 704 687 q 634 301 661 394 q 554 134 608 209 q 425 22 499 59 q 264 -16 351 -16 q 97 32 160 -16 q 33 123 33 80 q 82 191 33 149 q 146 233 131 233 q 170 219 165 233 q 175 170 175 205 q 202 74 175 110 q 272 37 229 37 q 381 105 336 37 q 455 353 427 173 q 532 629 484 532 q 720 852 580 725 m 858 1293 q 782 1163 840 1219 q 605 1040 725 1107 l 564 1055 q 702 1277 665 1172 l 858 1293 z "},"":{"ha":839,"x_min":33,"x_max":836,"o":"m 720 852 q 599 825 653 825 q 523 841 566 825 q 458 857 480 857 q 369 819 408 857 q 330 729 330 780 q 374 654 330 684 q 396 625 396 637 q 370 575 396 605 q 319 546 343 546 q 270 583 292 546 q 248 665 248 619 q 345 867 248 767 q 542 966 443 966 q 618 950 571 966 q 699 933 665 933 q 768 957 735 933 q 791 966 783 966 q 819 956 802 966 q 836 933 836 945 q 800 886 836 926 q 725 757 746 827 q 682 541 704 687 q 634 301 661 394 q 554 134 608 209 q 425 22 499 59 q 264 -16 351 -16 q 97 32 160 -16 q 33 123 33 80 q 82 191 33 149 q 146 233 131 233 q 170 219 165 233 q 175 170 175 205 q 202 74 175 110 q 272 37 229 37 q 381 105 336 37 q 455 353 427 173 q 532 629 484 532 q 720 852 580 725 m 778 1065 l 772 1039 q 600 1198 671 1063 q 491 1097 541 1130 q 351 1036 440 1064 l 358 1069 q 568 1296 483 1157 l 714 1322 q 726 1165 714 1216 q 778 1065 737 1114 z "},"":{"ha":839,"x_min":33,"x_max":836,"o":"m 720 852 q 599 825 653 825 q 523 841 566 825 q 458 857 480 857 q 369 819 408 857 q 330 729 330 780 q 374 654 330 684 q 396 625 396 637 q 370 575 396 605 q 319 546 343 546 q 270 583 292 546 q 248 665 248 619 q 345 867 248 767 q 542 966 443 966 q 618 950 571 966 q 699 933 665 933 q 768 957 735 933 q 791 966 783 966 q 819 956 802 966 q 836 933 836 945 q 800 886 836 926 q 725 757 746 827 q 682 541 704 687 q 634 301 661 394 q 554 134 608 209 q 425 22 499 59 q 264 -16 351 -16 q 97 32 160 -16 q 33 123 33 80 q 82 191 33 149 q 146 233 131 233 q 170 219 165 233 q 175 170 175 205 q 202 74 175 110 q 272 37 229 37 q 381 105 336 37 q 455 353 427 173 q 532 629 484 532 q 720 852 580 725 m 827 1193 q 742 1083 818 1083 q 638 1124 705 1083 q 701 1250 682 1195 q 827 1193 774 1204 m 584 1196 q 494 1084 571 1084 q 396 1126 451 1084 q 454 1250 437 1192 q 584 1196 536 1199 z "},"":{"ha":839,"x_min":33,"x_max":836,"o":"m 720 852 q 599 825 653 825 q 523 841 566 825 q 458 857 480 857 q 369 819 408 857 q 330 729 330 780 q 374 654 330 684 q 396 625 396 637 q 370 575 396 605 q 319 546 343 546 q 270 583 292 546 q 248 665 248 619 q 345 867 248 767 q 542 966 443 966 q 618 950 571 966 q 699 933 665 933 q 768 957 735 933 q 791 966 783 966 q 819 956 802 966 q 836 933 836 945 q 800 886 836 926 q 725 757 746 827 q 682 541 704 687 q 634 301 661 394 q 554 134 608 209 q 425 22 499 59 q 264 -16 351 -16 q 97 32 160 -16 q 33 123 33 80 q 82 191 33 149 q 146 233 131 233 q 170 219 165 233 q 175 170 175 205 q 202 74 175 110 q 272 37 229 37 q 381 105 336 37 q 455 353 427 173 q 532 629 484 532 q 720 852 580 725 m 608 1053 l 576 1035 q 349 1272 420 1128 l 505 1299 q 608 1053 523 1182 z "},"":{"ha":882,"x_min":50,"x_max":872,"o":"m 536 956 q 313 642 382 808 q 243 321 243 475 q 282 164 243 222 q 389 107 321 107 q 668 342 523 107 q 814 778 814 577 q 794 873 814 838 q 743 908 775 908 q 634 819 684 908 q 583 661 583 730 q 629 606 583 612 q 648 587 648 604 q 618 529 648 557 q 554 500 587 500 q 486 537 513 500 q 458 629 458 574 q 547 857 458 747 q 728 966 635 966 q 827 917 791 966 q 864 779 864 867 q 770 420 864 610 q 536 107 677 229 q 272 -16 396 -16 q 113 66 176 -16 q 50 275 50 147 q 105 551 50 412 q 247 801 159 691 q 386 938 334 910 q 536 966 437 966 l 536 956 m 872 1293 q 797 1163 854 1219 q 619 1040 739 1107 l 578 1055 q 716 1277 679 1172 l 872 1293 z "},"":{"ha":882,"x_min":50,"x_max":864,"o":"m 536 956 q 313 642 382 808 q 243 321 243 475 q 282 164 243 222 q 389 107 321 107 q 668 342 523 107 q 814 778 814 577 q 794 873 814 838 q 743 908 775 908 q 634 819 684 908 q 583 661 583 730 q 629 606 583 612 q 648 587 648 604 q 618 529 648 557 q 554 500 587 500 q 486 537 513 500 q 458 629 458 574 q 547 857 458 747 q 728 966 635 966 q 827 917 791 966 q 864 779 864 867 q 770 420 864 610 q 536 107 677 229 q 272 -16 396 -16 q 113 66 176 -16 q 50 275 50 147 q 105 551 50 412 q 247 801 159 691 q 386 938 334 910 q 536 966 437 966 l 536 956 m 785 1065 l 779 1039 q 607 1198 678 1063 q 497 1097 548 1130 q 358 1036 447 1064 l 365 1069 q 575 1296 490 1157 l 721 1322 q 732 1165 721 1216 q 785 1065 744 1114 z "},"":{"ha":1097,"x_min":0,"x_max":0,"o":""},"":{"ha":882,"x_min":50,"x_max":864,"o":"m 536 956 q 313 642 382 808 q 243 321 243 475 q 282 164 243 222 q 389 107 321 107 q 668 342 523 107 q 814 778 814 577 q 794 873 814 838 q 743 908 775 908 q 634 819 684 908 q 583 661 583 730 q 629 606 583 612 q 648 587 648 604 q 618 529 648 557 q 554 500 587 500 q 486 537 513 500 q 458 629 458 574 q 547 857 458 747 q 728 966 635 966 q 827 917 791 966 q 864 779 864 867 q 770 420 864 610 q 536 107 677 229 q 272 -16 396 -16 q 113 66 176 -16 q 50 275 50 147 q 105 551 50 412 q 247 801 159 691 q 386 938 334 910 q 536 966 437 966 l 536 956 m 581 1053 l 549 1035 q 321 1272 392 1128 l 477 1299 q 581 1053 495 1182 z "},"":{"ha":1055,"x_min":40,"x_max":1071,"o":"m 1071 150 q 806 -16 916 -16 q 698 37 748 -16 q 652 212 648 89 q 382 -16 533 -16 q 264 41 309 -16 q 220 192 220 97 q 302 530 220 294 q 372 799 372 732 q 350 875 372 846 q 293 904 328 904 q 189 841 239 904 q 139 708 139 777 q 184 606 139 647 q 201 581 201 591 q 172 526 201 558 q 118 493 142 493 q 65 533 90 493 q 40 621 40 573 q 134 858 40 750 q 338 966 227 966 q 479 899 425 966 q 533 722 533 831 q 453 370 533 594 q 397 160 397 214 q 413 105 397 125 q 457 85 429 85 q 557 155 509 85 q 632 303 604 226 q 701 529 661 380 l 760 740 q 802 878 784 824 q 826 939 821 932 q 843 949 831 946 q 888 956 854 951 l 985 966 q 1003 957 1006 966 l 971 842 q 876 464 926 682 q 825 186 825 245 q 842 114 825 141 q 888 87 859 87 q 957 115 920 87 q 1071 228 994 143 l 1071 150 m 932 1293 q 856 1163 913 1219 q 679 1040 799 1107 l 637 1055 q 776 1277 739 1172 l 932 1293 z "},"":{"ha":1055,"x_min":40,"x_max":1071,"o":"m 1071 150 q 806 -16 916 -16 q 698 37 748 -16 q 652 212 648 89 q 382 -16 533 -16 q 264 41 309 -16 q 220 192 220 97 q 302 530 220 294 q 372 799 372 732 q 350 875 372 846 q 293 904 328 904 q 189 841 239 904 q 139 708 139 777 q 184 606 139 647 q 201 581 201 591 q 172 526 201 558 q 118 493 142 493 q 65 533 90 493 q 40 621 40 573 q 134 858 40 750 q 338 966 227 966 q 479 899 425 966 q 533 722 533 831 q 453 370 533 594 q 397 160 397 214 q 413 105 397 125 q 457 85 429 85 q 557 155 509 85 q 632 303 604 226 q 701 529 661 380 l 760 740 q 802 878 784 824 q 826 939 821 932 q 843 949 831 946 q 888 956 854 951 l 985 966 q 1003 957 1006 966 l 971 842 q 876 464 926 682 q 825 186 825 245 q 842 114 825 141 q 888 87 859 87 q 957 115 920 87 q 1071 228 994 143 l 1071 150 m 859 1065 l 853 1039 q 681 1198 752 1063 q 571 1097 622 1130 q 432 1036 521 1064 l 439 1069 q 649 1296 564 1157 l 795 1322 q 806 1165 795 1216 q 859 1065 818 1114 z "},"":{"ha":1055,"x_min":40,"x_max":1071,"o":"m 1071 150 q 806 -16 916 -16 q 698 37 748 -16 q 652 212 648 89 q 382 -16 533 -16 q 264 41 309 -16 q 220 192 220 97 q 302 530 220 294 q 372 799 372 732 q 350 875 372 846 q 293 904 328 904 q 189 841 239 904 q 139 708 139 777 q 184 606 139 647 q 201 581 201 591 q 172 526 201 558 q 118 493 142 493 q 65 533 90 493 q 40 621 40 573 q 134 858 40 750 q 338 966 227 966 q 479 899 425 966 q 533 722 533 831 q 453 370 533 594 q 397 160 397 214 q 413 105 397 125 q 457 85 429 85 q 557 155 509 85 q 632 303 604 226 q 701 529 661 380 l 760 740 q 802 878 784 824 q 826 939 821 932 q 843 949 831 946 q 888 956 854 951 l 985 966 q 1003 957 1006 966 l 971 842 q 876 464 926 682 q 825 186 825 245 q 842 114 825 141 q 888 87 859 87 q 957 115 920 87 q 1071 228 994 143 l 1071 150 m 633 1053 l 602 1035 q 374 1272 445 1128 l 530 1299 q 633 1053 548 1182 z "},"":{"ha":334,"x_min":8,"x_max":349,"o":"m 349 150 q 111 -17 186 -17 q 38 27 68 -17 q 8 139 8 72 q 106 539 8 283 l 278 575 l 286 575 l 218 363 q 176 175 176 231 q 186 139 176 153 q 211 125 196 125 q 264 144 237 125 q 349 228 291 164 l 349 150 z "},"":{"ha":463,"x_min":58,"x_max":485,"o":"m 485 673 l 479 647 q 307 806 378 671 q 198 705 248 738 q 58 644 147 672 l 65 677 q 275 904 190 765 l 421 930 q 433 773 421 824 q 485 673 444 722 z "},"":{"ha":463,"x_min":65,"x_max":518,"o":"m 518 800 q 449 702 486 733 q 361 671 413 671 q 265 701 319 671 q 178 730 211 730 q 103 682 129 730 l 65 705 q 222 838 118 838 q 323 809 267 838 q 403 781 380 781 q 479 833 453 781 l 518 800 z "},"":{"ha":463,"x_min":-57,"x_max":411,"o":"m 411 833 l 397 710 l -57 710 l -43 833 l 411 833 z "},"":{"ha":468,"x_min":261,"x_max":569,"o":"m 569 822 q 445 679 491 715 q 357 642 399 642 q 267 789 261 642 l 389 831 q 398 758 389 781 q 431 734 408 734 q 568 871 475 734 l 569 822 z "},"":{"ha":463,"x_min":375,"x_max":566,"o":"m 566 802 q 478 692 557 692 q 375 734 431 692 q 436 863 414 798 q 566 802 513 813 z "},"":{"ha":463,"x_min":264,"x_max":519,"o":"m 389 904 q 481 867 444 904 q 519 778 519 831 q 482 687 519 725 q 392 650 444 650 q 301 687 339 650 q 264 778 264 725 q 301 866 264 829 q 389 904 338 904 m 392 700 q 447 723 424 700 q 471 778 471 746 q 447 832 471 809 q 393 856 424 856 q 337 833 361 856 q 314 778 314 810 q 337 723 314 745 q 392 700 359 700 z "},"":{"ha":463,"x_min":54,"x_max":349,"o":"m 258 -46 q 349 -146 349 -62 q 328 -212 349 -182 q 261 -266 307 -241 q 169 -296 215 -290 q 54 -302 123 -302 l 64 -249 q 205 -167 205 -249 q 132 -104 205 -107 q 232 5 184 -55 l 301 5 l 258 -46 z "},"":{"ha":463,"x_min":275,"x_max":864,"o":"m 864 901 q 788 771 846 827 q 610 648 730 715 l 570 663 q 707 885 668 777 l 864 901 m 570 901 q 494 771 551 827 q 317 648 437 715 l 275 663 q 414 885 376 780 l 570 901 z "},"":{"ha":463,"x_min":196,"x_max":393,"o":"m 393 -178 l 368 -301 q 311 -310 340 -310 q 227 -283 258 -310 q 196 -210 196 -256 q 223 -123 196 -164 q 338 3 251 -82 l 385 3 q 304 -87 326 -59 q 283 -142 283 -116 q 300 -172 283 -159 q 336 -186 316 -186 q 393 -178 353 -186 z "},"":{"ha":463,"x_min":174,"x_max":602,"o":"m 602 926 l 593 893 q 383 669 470 810 l 236 646 q 223 814 239 763 q 174 901 206 865 l 180 929 q 351 771 282 893 q 602 926 468 894 z "},"":{"ha":882,"x_min":25,"x_max":897,"o":"m 897 150 q 568 -14 736 -14 q 474 -1 519 -14 q 365 41 429 12 q 250 85 300 71 q 85 -16 159 -16 q 42 1 59 -16 q 25 43 25 18 q 76 133 25 94 q 218 187 126 172 q 282 415 276 259 l 158 363 l 158 419 l 289 473 q 417 833 300 699 q 665 966 534 966 q 824 907 764 966 q 885 751 885 848 q 835 588 885 656 q 720 519 785 519 q 656 544 680 519 q 633 606 633 569 q 637 647 633 635 q 671 633 655 633 q 728 681 703 633 q 753 790 753 728 q 725 882 753 848 q 650 916 697 916 q 505 701 529 916 l 490 561 l 593 604 l 593 549 l 481 501 q 328 192 445 311 q 428 185 385 196 q 549 144 470 174 q 685 114 628 114 q 897 228 796 114 l 897 150 z "},"":{"ha":449,"x_min":-118,"x_max":464,"o":"m 464 150 q 301 24 370 64 q 168 -16 232 -16 q 61 26 96 -16 q 18 121 26 68 q 9 248 9 174 l -118 196 l -118 252 l 16 304 q 220 901 62 621 l 392 965 q 404 968 400 968 q 449 856 449 968 q 410 643 449 745 q 265 403 371 540 l 397 454 l 397 400 l 187 318 q 180 215 180 249 q 202 126 180 160 q 260 92 224 92 q 341 120 298 92 q 464 228 384 148 l 464 150 m 204 415 q 344 629 291 511 q 397 833 397 747 q 390 874 397 859 q 371 889 382 889 q 309 792 353 889 q 204 415 264 696 z "},"":{"ha":782,"x_min":26,"x_max":803,"o":"m 724 844 q 636 714 724 818 l 624 714 q 607 754 610 720 q 559 868 600 824 q 461 913 518 913 q 369 874 408 913 q 330 781 330 835 q 355 696 330 741 q 482 553 379 651 q 614 398 585 456 q 643 288 643 340 q 538 75 643 167 q 293 -17 433 -17 q 102 37 177 -17 q 26 125 26 91 q 68 213 26 144 q 115 282 109 282 q 146 270 137 282 q 159 223 155 257 q 210 77 169 117 q 317 37 251 37 q 442 87 389 37 q 496 203 496 137 q 475 275 496 237 q 358 405 454 313 q 231 561 261 497 q 201 685 201 625 q 281 878 201 790 q 492 966 360 966 q 657 921 591 966 q 724 844 724 875 m 803 1318 l 794 1285 q 585 1061 671 1202 l 437 1038 q 424 1206 441 1155 q 375 1293 408 1257 l 382 1321 q 553 1163 484 1285 q 803 1318 669 1286 z "},"":{"ha":564,"x_min":0,"x_max":611,"o":"m 224 547 q 318 567 271 559 q 375 575 366 575 q 382 570 382 575 q 376 549 382 559 q 366 489 366 517 q 406 393 366 454 q 447 279 447 332 q 348 79 447 176 q 142 -17 248 -17 q 58 7 96 -17 q 20 60 20 32 q 57 121 20 76 q 111 167 95 167 q 150 111 133 167 q 208 56 167 56 q 286 94 250 56 q 322 176 322 132 q 276 290 322 219 q 215 410 230 361 q 16 150 136 283 l 0 150 l 0 211 q 224 547 166 388 m 611 926 l 602 893 q 393 669 479 810 l 245 646 q 232 814 249 763 q 183 901 216 865 l 190 929 q 361 771 292 893 q 611 926 477 894 z "},"":{"ha":782,"x_min":26,"x_max":798,"o":"m 798 150 q 631 24 708 64 q 465 -16 554 -16 q 320 21 408 -16 q 176 57 233 57 q 123 46 140 57 q 97 7 106 35 q 75 -16 90 -16 q 35 -13 43 -16 q 26 1 26 -10 q 62 88 26 15 q 178 266 97 161 q 440 562 260 371 l 486 611 q 654 810 616 749 q 549 786 608 786 q 415 805 498 786 q 297 823 333 823 q 210 798 244 823 q 176 733 176 772 q 210 669 176 697 q 244 624 244 640 q 211 575 244 604 q 164 546 178 546 q 119 580 142 546 q 97 652 97 614 q 197 866 97 765 q 410 968 298 968 q 530 949 439 968 q 656 930 621 930 q 725 948 703 930 q 755 966 747 966 q 781 956 781 966 q 749 863 781 922 q 673 747 718 804 q 460 507 628 690 q 249 273 292 324 q 174 164 206 222 q 261 187 237 182 q 325 192 285 192 q 491 158 394 192 q 635 123 589 123 q 714 149 677 123 q 798 228 751 175 l 798 150 m 775 1318 l 766 1285 q 557 1061 644 1202 l 410 1038 q 396 1206 413 1155 q 347 1293 380 1257 l 354 1321 q 525 1163 456 1285 q 775 1318 642 1286 z "},"":{"ha":665,"x_min":0,"x_max":724,"o":"m 681 150 q 542 16 589 48 q 450 -17 496 -17 q 356 5 425 -17 q 252 28 287 28 q 188 5 208 28 q 161 -17 168 -17 q 121 -16 127 -17 q 114 -11 114 -15 q 230 146 114 4 l 464 431 q 379 422 425 422 q 253 443 318 422 q 16 150 131 268 l 0 150 l 0 211 q 166 409 86 299 q 258 547 245 518 q 279 575 271 575 q 342 566 284 575 q 435 557 399 557 q 552 566 498 557 q 614 575 605 575 q 627 568 627 575 q 517 412 627 543 l 298 147 q 343 150 326 150 q 431 135 356 150 q 521 119 506 119 q 593 142 563 119 q 681 228 623 165 l 681 150 m 724 926 l 715 893 q 505 669 592 810 l 358 646 q 345 814 361 763 q 296 901 328 865 l 302 929 q 473 771 404 893 q 724 926 590 894 z "},"":{"ha":758,"x_min":325,"x_max":433,"o":"m 433 452 l 325 452 l 325 937 l 433 937 l 433 452 m 433 -243 l 325 -243 l 325 243 l 433 243 l 433 -243 z "},"":{"ha":454,"x_min":54,"x_max":430,"o":"m 425 364 l 393 290 q 354 223 369 235 q 296 211 339 211 l 146 216 q 92 199 115 216 q 75 192 81 192 q 61 207 54 192 l 98 294 q 128 338 113 328 q 197 349 144 349 l 309 349 q 387 363 370 349 q 410 376 403 376 q 425 364 430 376 z "},"":{"ha":694,"x_min":312,"x_max":1031,"o":"m 1031 1078 l 312 1078 l 312 1147 l 1031 1147 l 1031 1078 z "},"":{"ha":1055,"x_min":25,"x_max":1038,"o":"m 385 122 q 477 84 408 113 q 591 54 546 54 q 773 202 705 54 q 840 518 840 349 q 754 805 840 696 q 528 914 667 914 q 318 834 416 914 q 220 664 220 753 q 277 572 220 597 q 301 542 301 561 q 250 499 301 523 q 183 476 199 476 q 122 516 149 476 q 96 606 96 557 q 231 851 96 735 q 583 968 366 968 q 915 853 791 968 q 1038 547 1038 739 q 962 269 1038 401 q 756 60 886 138 q 484 -17 627 -17 q 257 36 360 -17 q 110 -17 170 -17 q 50 3 75 -17 q 25 53 25 24 q 75 133 25 100 q 199 165 124 165 q 300 149 252 165 q 358 231 342 180 q 397 458 374 282 l 310 458 l 317 509 l 407 509 q 509 704 435 636 q 667 782 583 771 l 693 746 q 599 509 612 667 l 715 509 l 707 460 l 593 460 q 533 256 578 330 q 385 122 488 182 z "},"":{"ha":608,"x_min":7,"x_max":541,"o":"m 541 851 l 439 783 q 494 515 494 656 q 400 147 494 311 q 180 -17 305 -17 q 57 43 107 -17 q 7 193 7 104 q 116 461 7 346 q 334 576 225 576 q 406 561 368 576 q 350 725 393 648 l 252 660 l 237 686 l 335 751 q 221 882 291 828 l 311 970 q 425 814 382 895 l 522 878 l 541 851 m 265 107 q 373 214 330 107 q 415 415 415 320 q 393 496 415 467 q 334 526 371 526 q 221 421 262 526 q 179 216 179 315 q 265 107 179 107 z "},"":{"ha":1055,"x_min":25,"x_max":1071,"o":"m 1071 150 q 822 9 1003 66 q 664 -262 758 -175 q 469 -350 570 -350 q 387 -322 418 -350 q 355 -248 355 -294 q 643 -1 355 -102 l 659 62 q 742 389 726 336 l 781 518 q 749 450 773 504 q 540 90 631 186 q 359 -7 448 -7 q 249 46 292 -7 q 207 184 207 99 q 283 511 207 292 q 359 804 359 731 q 336 879 359 849 q 277 908 313 908 q 172 846 221 908 q 123 714 123 785 q 170 610 123 650 q 186 586 186 595 q 159 530 186 566 q 106 494 132 494 q 51 534 77 494 q 25 619 25 574 q 113 855 25 739 q 323 971 201 971 q 466 903 410 971 q 521 726 521 835 q 437 366 521 596 q 380 140 380 206 q 425 79 380 79 q 637 328 508 79 q 869 926 766 576 q 886 949 874 944 q 967 963 898 955 q 1042 971 1037 971 q 1057 961 1059 971 l 1021 814 l 916 354 q 843 74 894 259 q 1071 228 983 118 l 1071 150 m 627 -61 q 466 -146 525 -96 q 407 -241 407 -197 q 425 -283 407 -267 q 468 -300 442 -300 q 556 -241 519 -300 q 627 -61 593 -183 m 916 1292 q 841 1162 898 1218 q 663 1039 783 1105 l 622 1053 q 760 1276 723 1171 l 916 1292 z "},"":{"ha":724,"x_min":7,"x_max":739,"o":"m 739 150 q 464 -21 653 66 q 322 -274 401 -200 q 158 -349 243 -349 q 89 -322 115 -349 q 62 -252 62 -296 q 307 -9 62 -118 l 349 136 q 123 -7 220 -7 q 39 36 71 -7 q 7 150 7 79 q 52 370 7 252 l 117 542 l 314 576 l 229 375 q 171 155 171 229 q 212 94 171 94 q 308 162 254 94 q 399 329 362 230 l 476 542 l 661 576 l 485 46 q 739 228 640 117 l 739 150 m 288 -77 q 159 -160 204 -114 q 114 -252 114 -207 q 153 -297 114 -297 q 288 -77 228 -297 m 675 901 q 599 771 656 827 q 422 648 542 715 l 380 663 q 519 885 481 780 l 675 901 z "},"":{"ha":1143,"x_min":26,"x_max":1092,"o":"m 684 728 q 836 751 737 751 q 1026 675 960 751 q 1092 463 1092 599 q 1002 255 1092 343 q 790 167 911 167 q 701 186 736 167 q 665 235 665 206 q 688 294 665 257 q 729 332 711 332 q 760 279 751 332 q 799 220 768 220 q 873 317 842 220 q 905 513 905 414 q 875 654 905 618 q 783 689 845 689 q 676 667 729 689 l 659 486 q 511 112 634 236 q 224 -12 389 -12 q 76 35 125 -12 q 26 139 26 82 q 84 208 26 172 q 172 244 142 244 q 193 218 193 244 q 188 172 193 212 q 182 125 182 133 q 201 61 182 85 q 254 37 221 37 q 381 126 328 37 q 454 372 435 216 l 485 627 q 556 844 501 762 q 741 974 612 926 l 781 936 q 717 847 744 908 q 684 728 690 787 z "},"":{"ha":782,"x_min":0,"x_max":684,"o":"m 354 479 q 439 553 404 529 q 524 576 475 576 q 639 525 594 576 q 684 390 684 473 q 582 113 684 238 q 359 -12 480 -12 q 249 32 302 -12 q 184 -314 200 -187 q 20 -345 114 -326 q 144 304 41 -146 q 16 150 78 206 l 0 150 l 0 211 q 151 409 94 311 q 249 692 207 507 l 304 936 l 478 968 l 354 479 m 264 109 q 345 40 293 40 q 462 143 410 40 q 514 354 514 245 q 493 433 514 403 q 437 463 471 463 q 356 414 389 463 q 300 264 323 365 l 264 109 z "},"":{"ha":926,"x_min":92,"x_max":835,"o":"m 835 318 l 92 318 l 92 425 l 835 425 l 835 318 z "},"":{"ha":928,"x_min":119,"x_max":810,"o":"m 810 640 l 541 371 l 807 104 l 732 29 l 465 296 l 196 28 l 121 103 l 389 371 l 119 640 l 195 715 l 464 446 l 733 715 l 810 640 z "},"":{"ha":471,"x_min":136,"x_max":403,"o":"m 182 771 q 160 782 160 781 q 194 837 160 797 q 269 913 227 878 q 329 957 310 949 q 385 965 347 965 q 403 956 403 965 q 399 932 403 948 l 310 589 q 249 405 267 419 q 153 390 231 390 q 136 397 136 390 q 140 412 136 402 l 224 667 l 285 886 q 182 771 243 866 z "},"":{"ha":449,"x_min":28,"x_max":425,"o":"m 379 526 q 338 427 361 460 q 254 395 315 395 q 180 399 228 395 q 109 403 132 403 q 33 395 85 403 q 28 404 28 395 q 160 595 28 478 q 275 721 241 667 q 310 835 310 774 q 289 900 310 875 q 233 925 267 925 q 175 901 199 925 q 151 844 151 878 q 171 803 151 818 q 191 779 191 788 q 161 754 191 768 q 114 741 131 741 q 89 754 100 741 q 78 787 78 768 q 141 910 78 854 q 281 965 203 965 q 384 927 343 965 q 425 832 425 890 q 392 735 425 784 q 240 607 359 686 q 90 481 122 527 q 179 493 137 493 q 233 490 195 493 q 288 486 271 486 q 336 498 324 486 q 358 534 349 509 l 379 526 z "},"":{"ha":449,"x_min":29,"x_max":431,"o":"m 431 842 q 292 703 431 749 q 374 645 348 677 q 400 566 400 614 q 339 440 400 489 q 179 392 277 392 q 69 421 109 392 q 29 501 29 450 q 45 539 29 530 q 87 555 62 549 q 118 562 113 562 q 129 547 129 562 q 121 522 129 539 q 114 484 114 505 q 135 438 114 456 q 187 419 156 419 q 264 467 237 419 q 292 570 292 515 q 272 640 292 612 q 222 667 252 667 l 193 664 q 182 677 182 664 q 188 705 182 701 q 220 710 195 710 q 300 748 269 710 q 332 844 332 787 q 310 908 332 884 q 252 932 288 932 q 198 912 221 932 q 175 867 175 892 q 181 846 175 864 q 187 825 187 829 q 160 799 187 814 q 121 785 134 785 q 106 796 113 785 q 100 822 100 808 q 156 921 100 878 q 285 965 212 965 q 390 931 350 965 q 431 842 431 897 z "},"":{"ha":1029,"x_min":142,"x_max":1006,"o":"m 187 771 q 165 782 165 781 q 199 837 165 797 q 274 913 233 878 q 334 957 315 949 q 390 965 353 965 q 408 956 408 965 q 404 932 408 948 l 315 589 q 254 405 272 419 q 158 390 236 390 q 142 397 142 390 q 145 412 142 402 l 229 667 l 290 886 q 187 771 249 866 m 859 965 l 258 -161 l 188 -161 l 791 965 l 859 965 m 960 -38 q 919 -137 941 -104 q 835 -170 896 -170 q 761 -165 808 -170 q 689 -161 713 -161 q 614 -170 666 -161 q 608 -160 608 -170 q 741 31 608 -86 q 856 156 821 102 q 890 271 890 210 q 869 336 890 311 q 814 361 848 361 q 756 337 780 361 q 732 280 732 313 q 751 239 732 254 q 771 215 771 224 q 741 190 771 204 q 694 176 711 176 q 669 190 680 176 q 659 223 659 204 q 721 346 659 290 q 861 401 784 401 q 965 363 924 401 q 1006 268 1006 326 q 972 171 1006 220 q 821 42 939 122 q 671 -83 703 -37 q 760 -71 718 -71 q 813 -75 775 -71 q 868 -78 851 -78 q 917 -66 905 -78 q 939 -30 929 -55 l 960 -38 z "},"":{"ha":1031,"x_min":142,"x_max":1002,"o":"m 187 771 q 165 782 165 781 q 199 837 165 797 q 274 913 233 878 q 334 957 315 949 q 390 965 353 965 q 408 956 408 965 q 404 932 408 948 l 315 589 q 254 405 272 419 q 158 390 236 390 q 142 397 142 390 q 145 412 142 402 l 229 667 l 290 886 q 187 771 249 866 m 869 965 l 269 -161 l 199 -161 l 802 965 l 869 965 m 1002 64 l 996 38 q 983 5 988 13 q 960 -3 977 -3 l 888 -6 l 858 -109 q 842 -148 850 -136 q 814 -163 835 -159 q 746 -168 793 -168 q 723 -160 723 -168 q 725 -155 723 -159 l 779 -3 l 667 -1 q 619 2 629 1 q 610 9 610 4 l 610 32 q 640 94 610 45 q 718 204 669 142 q 824 321 766 265 q 909 391 882 377 q 970 406 937 406 q 990 395 990 406 q 907 64 990 372 q 979 71 960 66 l 991 73 q 1002 65 1002 73 l 1002 64 m 879 330 q 768 220 838 302 q 650 52 698 139 l 795 55 q 879 330 833 161 z "},"":{"ha":1014,"x_min":35,"x_max":983,"o":"m 436 842 q 297 703 436 749 q 379 645 353 677 q 406 566 406 614 q 344 440 406 489 q 184 392 283 392 q 75 421 115 392 q 35 501 35 450 q 51 539 35 530 q 93 555 67 549 q 123 562 118 562 q 134 547 134 562 q 127 522 134 539 q 119 484 119 505 q 140 438 119 456 q 193 419 161 419 q 270 467 243 419 q 297 570 297 515 q 277 640 297 612 q 228 667 258 667 l 199 664 q 187 677 187 664 q 194 705 187 701 q 225 710 200 710 q 306 748 275 710 q 337 844 337 787 q 315 908 337 884 q 257 932 294 932 q 203 912 227 932 q 180 867 180 892 q 186 846 180 864 q 193 825 193 829 q 166 799 193 814 q 126 785 139 785 q 112 796 118 785 q 105 822 105 808 q 161 921 105 878 q 290 965 217 965 q 396 931 355 965 q 436 842 436 897 m 878 965 l 277 -161 l 207 -161 l 810 965 l 878 965 m 983 64 l 977 38 q 964 5 969 13 q 941 -3 958 -3 l 869 -6 l 839 -109 q 823 -148 831 -136 q 795 -163 816 -159 q 727 -168 774 -168 q 704 -160 704 -168 q 706 -155 704 -159 l 760 -3 l 648 -1 q 600 2 610 1 q 591 9 591 4 l 591 32 q 621 94 591 45 q 699 204 650 142 q 805 321 747 265 q 890 391 863 377 q 951 406 918 406 q 971 395 971 406 q 888 64 971 372 q 960 71 941 66 l 972 73 q 983 65 983 73 l 983 64 m 860 330 q 749 220 819 302 q 631 52 679 139 l 777 55 q 860 330 814 161 z "},"":{"ha":471,"x_min":24,"x_max":416,"o":"m 416 628 l 410 602 q 397 569 402 577 q 374 561 391 562 l 302 558 l 272 456 q 256 417 264 428 q 228 401 249 406 q 160 396 208 396 q 137 404 137 396 q 139 410 137 405 l 193 561 l 81 564 q 33 567 43 565 q 24 574 24 568 l 24 596 q 54 658 24 609 q 132 768 83 707 q 238 885 180 829 q 323 956 296 941 q 385 970 351 970 q 404 960 404 970 q 321 628 404 936 q 393 635 374 630 l 406 637 q 416 629 416 637 l 416 628 m 293 895 q 182 785 252 866 q 64 616 112 703 l 210 619 q 293 895 247 726 z "}}}
